<svg xmlns="http://www.w3.org/2000/svg" viewBox="0 0 200 200"><defs><linearGradient id="bw" x1="0" x2="0" y1="0" y2="1"><stop offset="0" stop-color="#b8421e"/><stop offset="1" stop-color="#7a2410"/></linearGradient><clipPath id="cl"><ellipse cx="100" cy="98" rx="68" ry="18"/></clipPath></defs>
<ellipse cx="100" cy="164" rx="72" ry="10" fill="#000" opacity=".2"/>
<path d="M22 96 Q26 158 100 162 Q174 158 178 96 Z" fill="url(#bw)"/>
<ellipse cx="100" cy="96" rx="78" ry="24" fill="#e8d8c0"/>
<ellipse cx="100" cy="98" rx="68" ry="18" fill="#d86a2a"/><g clip-path="url(#cl)"><ellipse cx="107.8" cy="100.6" rx="2" ry="1.3" fill="#f0a050"/><ellipse cx="139.4" cy="92.2" rx="2" ry="1.3" fill="#c85a20"/><ellipse cx="128.0" cy="85.1" rx="2" ry="1.3" fill="#d86a2a"/><ellipse cx="49.2" cy="100.6" rx="2" ry="1.3" fill="#d86a2a"/><ellipse cx="107.6" cy="96.7" rx="2" ry="1.3" fill="#d86a2a"/><ellipse cx="105.5" cy="104.4" rx="2" ry="1.3" fill="#e88a3a"/><ellipse cx="147.9" cy="93.1" rx="2" ry="1.3" fill="#e88a3a"/><ellipse cx="48.5" cy="104.9" rx="2" ry="1.3" fill="#e88a3a"/><ellipse cx="101.8" cy="103.9" rx="2" ry="1.3" fill="#c85a20"/><ellipse cx="103.8" cy="111.6" rx="2" ry="1.3" fill="#f0a050"/><ellipse cx="88.1" cy="95.0" rx="2" ry="1.3" fill="#d86a2a"/><ellipse cx="124.2" cy="87.7" rx="2" ry="1.3" fill="#e88a3a"/><ellipse cx="48.9" cy="95.0" rx="2" ry="1.3" fill="#f0a050"/><ellipse cx="50.2" cy="91.5" rx="2" ry="1.3" fill="#d86a2a"/><ellipse cx="99.3" cy="98.6" rx="2" ry="1.3" fill="#f0a050"/><ellipse cx="70.0" cy="108.3" rx="2" ry="1.3" fill="#d86a2a"/><ellipse cx="120.7" cy="110.8" rx="2" ry="1.3" fill="#f0a050"/><ellipse cx="60.8" cy="96.5" rx="2" ry="1.3" fill="#e88a3a"/><ellipse cx="146.6" cy="94.4" rx="2" ry="1.3" fill="#f0a050"/><ellipse cx="110.7" cy="86.2" rx="2" ry="1.3" fill="#f0a050"/><ellipse cx="161.2" cy="100.0" rx="2" ry="1.3" fill="#d86a2a"/><ellipse cx="139.5" cy="100.9" rx="2" ry="1.3" fill="#f0a050"/><ellipse cx="60.1" cy="108.5" rx="2" ry="1.3" fill="#c85a20"/><ellipse cx="89.3" cy="101.5" rx="2" ry="1.3" fill="#d86a2a"/><ellipse cx="103.0" cy="111.8" rx="2" ry="1.3" fill="#f0a050"/><ellipse cx="140.0" cy="105.9" rx="2" ry="1.3" fill="#c85a20"/><ellipse cx="101.0" cy="91.8" rx="2" ry="1.3" fill="#d86a2a"/><ellipse cx="77.0" cy="105.9" rx="2" ry="1.3" fill="#e88a3a"/><ellipse cx="62.5" cy="85.9" rx="2" ry="1.3" fill="#d86a2a"/><ellipse cx="73.9" cy="82.6" rx="2" ry="1.3" fill="#d86a2a"/><ellipse cx="72.1" cy="99.0" rx="2" ry="1.3" fill="#f0a050"/><ellipse cx="137.0" cy="108.8" rx="2" ry="1.3" fill="#c85a20"/><ellipse cx="111.9" cy="96.9" rx="2" ry="1.3" fill="#d86a2a"/><ellipse cx="117.6" cy="112.4" rx="2" ry="1.3" fill="#d86a2a"/><ellipse cx="127.9" cy="91.7" rx="2" ry="1.3" fill="#d86a2a"/><ellipse cx="84.7" cy="108.0" rx="2" ry="1.3" fill="#f0a050"/><ellipse cx="118.1" cy="87.3" rx="2" ry="1.3" fill="#d86a2a"/><ellipse cx="151.7" cy="101.1" rx="2" ry="1.3" fill="#c85a20"/><ellipse cx="86.2" cy="113.4" rx="2" ry="1.3" fill="#f0a050"/><ellipse cx="151.1" cy="102.1" rx="2" ry="1.3" fill="#e88a3a"/><ellipse cx="91.4" cy="113.0" rx="2" ry="1.3" fill="#e88a3a"/><ellipse cx="61.5" cy="102.1" rx="2" ry="1.3" fill="#f0a050"/><ellipse cx="40.0" cy="104.1" rx="2" ry="1.3" fill="#c85a20"/><ellipse cx="84.9" cy="104.2" rx="2" ry="1.3" fill="#f0a050"/><ellipse cx="85.8" cy="88.4" rx="2" ry="1.3" fill="#f0a050"/><ellipse cx="110.0" cy="89.6" rx="2" ry="1.3" fill="#f0a050"/><ellipse cx="137.3" cy="103.5" rx="2" ry="1.3" fill="#f0a050"/><ellipse cx="40.3" cy="105.2" rx="2" ry="1.3" fill="#d86a2a"/><ellipse cx="115.1" cy="106.3" rx="2" ry="1.3" fill="#e88a3a"/><ellipse cx="130.2" cy="103.8" rx="2" ry="1.3" fill="#c85a20"/><ellipse cx="87.5" cy="108.9" rx="2" ry="1.3" fill="#d86a2a"/><ellipse cx="94.6" cy="91.2" rx="2" ry="1.3" fill="#e88a3a"/><ellipse cx="58.6" cy="101.9" rx="2" ry="1.3" fill="#f0a050"/><ellipse cx="90.8" cy="81.9" rx="2" ry="1.3" fill="#e88a3a"/><ellipse cx="67.3" cy="90.6" rx="2" ry="1.3" fill="#e88a3a"/><ellipse cx="62.4" cy="86.4" rx="2" ry="1.3" fill="#d86a2a"/><ellipse cx="150.6" cy="102.9" rx="2" ry="1.3" fill="#d86a2a"/><ellipse cx="60.7" cy="104.8" rx="2" ry="1.3" fill="#c85a20"/><ellipse cx="100.0" cy="91.2" rx="2" ry="1.3" fill="#f0a050"/><ellipse cx="159.6" cy="101.0" rx="2" ry="1.3" fill="#f0a050"/><ellipse cx="80.9" cy="87.9" rx="2" ry="1.3" fill="#f0a050"/><ellipse cx="122.5" cy="103.9" rx="2" ry="1.3" fill="#e88a3a"/><ellipse cx="75.7" cy="89.9" rx="2" ry="1.3" fill="#e88a3a"/><ellipse cx="111.3" cy="97.0" rx="2" ry="1.3" fill="#f0a050"/><ellipse cx="125.2" cy="107.4" rx="2" ry="1.3" fill="#c85a20"/><ellipse cx="69.7" cy="106.2" rx="2" ry="1.3" fill="#e88a3a"/><ellipse cx="121.7" cy="100.9" rx="2" ry="1.3" fill="#c85a20"/><ellipse cx="75.2" cy="105.1" rx="2" ry="1.3" fill="#e88a3a"/><ellipse cx="88.4" cy="114.4" rx="2" ry="1.3" fill="#d86a2a"/><ellipse cx="128.1" cy="99.2" rx="2" ry="1.3" fill="#d86a2a"/><ellipse cx="37.3" cy="96.2" rx="2" ry="1.3" fill="#f0a050"/><ellipse cx="142.9" cy="108.1" rx="2" ry="1.3" fill="#d86a2a"/><ellipse cx="91.3" cy="90.5" rx="2" ry="1.3" fill="#e88a3a"/><ellipse cx="58.0" cy="88.8" rx="2" ry="1.3" fill="#e88a3a"/><ellipse cx="129.5" cy="97.9" rx="2" ry="1.3" fill="#d86a2a"/><ellipse cx="111.8" cy="101.5" rx="2" ry="1.3" fill="#d86a2a"/><ellipse cx="126.0" cy="110.7" rx="2" ry="1.3" fill="#d86a2a"/><ellipse cx="159.4" cy="97.7" rx="2" ry="1.3" fill="#f0a050"/><ellipse cx="164.2" cy="94.6" rx="2" ry="1.3" fill="#d86a2a"/><ellipse cx="72.6" cy="85.5" rx="2" ry="1.3" fill="#e88a3a"/><ellipse cx="66.2" cy="95.2" rx="2" ry="1.3" fill="#d86a2a"/><ellipse cx="91.9" cy="104.4" rx="2" ry="1.3" fill="#f0a050"/><ellipse cx="86.1" cy="84.2" rx="2" ry="1.3" fill="#f0a050"/><ellipse cx="118.2" cy="107.1" rx="2" ry="1.3" fill="#e88a3a"/><ellipse cx="110.6" cy="114.7" rx="2" ry="1.3" fill="#e88a3a"/><ellipse cx="108.4" cy="90.0" rx="2" ry="1.3" fill="#d86a2a"/><ellipse cx="60.4" cy="98.4" rx="2" ry="1.3" fill="#e88a3a"/><ellipse cx="59.4" cy="92.9" rx="2" ry="1.3" fill="#c85a20"/><ellipse cx="123.6" cy="97.3" rx="2" ry="1.3" fill="#e88a3a"/><ellipse cx="112.6" cy="95.1" rx="2" ry="1.3" fill="#c85a20"/><ellipse cx="55.2" cy="106.6" rx="2" ry="1.3" fill="#c85a20"/><ellipse cx="58.1" cy="99.5" rx="2" ry="1.3" fill="#e88a3a"/><ellipse cx="57.8" cy="104.9" rx="2" ry="1.3" fill="#c85a20"/><ellipse cx="126.2" cy="104.8" rx="2" ry="1.3" fill="#e88a3a"/><ellipse cx="140.2" cy="103.2" rx="2" ry="1.3" fill="#e88a3a"/><ellipse cx="76.5" cy="97.3" rx="2" ry="1.3" fill="#f0a050"/><ellipse cx="123.3" cy="86.9" rx="2" ry="1.3" fill="#c85a20"/><ellipse cx="50.7" cy="90.2" rx="2" ry="1.3" fill="#c85a20"/><ellipse cx="132.2" cy="106.7" rx="2" ry="1.3" fill="#d86a2a"/><ellipse cx="140.7" cy="86.6" rx="2" ry="1.3" fill="#e88a3a"/><ellipse cx="63.8" cy="96.9" rx="2" ry="1.3" fill="#f0a050"/><ellipse cx="133.5" cy="112.0" rx="2" ry="1.3" fill="#f0a050"/><ellipse cx="109.9" cy="114.4" rx="2" ry="1.3" fill="#d86a2a"/><ellipse cx="65.1" cy="96.9" rx="2" ry="1.3" fill="#c85a20"/><ellipse cx="125.7" cy="101.6" rx="2" ry="1.3" fill="#f0a050"/><ellipse cx="133.3" cy="95.6" rx="2" ry="1.3" fill="#c85a20"/><ellipse cx="63.4" cy="88.6" rx="2" ry="1.3" fill="#f0a050"/><ellipse cx="144.0" cy="105.5" rx="2" ry="1.3" fill="#f0a050"/><ellipse cx="57.8" cy="90.9" rx="2" ry="1.3" fill="#e88a3a"/><ellipse cx="124.8" cy="109.8" rx="2" ry="1.3" fill="#c85a20"/><ellipse cx="131.3" cy="92.3" rx="2" ry="1.3" fill="#f0a050"/><ellipse cx="111.9" cy="96.4" rx="2" ry="1.3" fill="#e88a3a"/><ellipse cx="112.3" cy="94.3" rx="2" ry="1.3" fill="#f0a050"/><ellipse cx="154.9" cy="93.3" rx="2" ry="1.3" fill="#e88a3a"/><ellipse cx="97.2" cy="105.8" rx="2" ry="1.3" fill="#e88a3a"/><ellipse cx="53.3" cy="92.1" rx="2" ry="1.3" fill="#c85a20"/><ellipse cx="161.1" cy="101.0" rx="2" ry="1.3" fill="#e88a3a"/><ellipse cx="49.3" cy="94.2" rx="2" ry="1.3" fill="#f0a050"/><ellipse cx="89.5" cy="106.0" rx="2" ry="1.3" fill="#d86a2a"/><ellipse cx="114.8" cy="87.9" rx="2" ry="1.3" fill="#f0a050"/><ellipse cx="47.5" cy="102.1" rx="2" ry="1.3" fill="#f0a050"/><ellipse cx="123.2" cy="107.2" rx="2" ry="1.3" fill="#e88a3a"/><ellipse cx="62.5" cy="100.2" rx="2" ry="1.3" fill="#f0a050"/><ellipse cx="138.0" cy="110.4" rx="2" ry="1.3" fill="#e88a3a"/><ellipse cx="72.3" cy="113.3" rx="2" ry="1.3" fill="#c85a20"/><ellipse cx="76.5" cy="106.9" rx="2" ry="1.3" fill="#e88a3a"/><ellipse cx="103.2" cy="85.8" rx="2" ry="1.3" fill="#c85a20"/><ellipse cx="125.5" cy="103.2" rx="2" ry="1.3" fill="#d86a2a"/><ellipse cx="131.8" cy="105.9" rx="2" ry="1.3" fill="#f0a050"/><ellipse cx="109.4" cy="101.0" rx="2" ry="1.3" fill="#c85a20"/><ellipse cx="157.8" cy="92.7" rx="2" ry="1.3" fill="#d86a2a"/><ellipse cx="43.6" cy="106.2" rx="2" ry="1.3" fill="#e88a3a"/><ellipse cx="148.7" cy="89.2" rx="2" ry="1.3" fill="#d86a2a"/><ellipse cx="151.3" cy="92.2" rx="2" ry="1.3" fill="#c85a20"/><ellipse cx="109.7" cy="104.3" rx="2" ry="1.3" fill="#f0a050"/><ellipse cx="145.1" cy="97.7" rx="2" ry="1.3" fill="#d86a2a"/><ellipse cx="133.7" cy="89.7" rx="2" ry="1.3" fill="#d86a2a"/><ellipse cx="134.9" cy="103.7" rx="2" ry="1.3" fill="#e88a3a"/><ellipse cx="68.8" cy="100.2" rx="2" ry="1.3" fill="#e88a3a"/><ellipse cx="87.4" cy="96.1" rx="2" ry="1.3" fill="#f0a050"/><ellipse cx="90.0" cy="110.9" rx="2" ry="1.3" fill="#e88a3a"/><ellipse cx="129.8" cy="86.4" rx="2" ry="1.3" fill="#c85a20"/><ellipse cx="98.7" cy="99.5" rx="2" ry="1.3" fill="#c85a20"/><ellipse cx="118.9" cy="101.9" rx="2" ry="1.3" fill="#d86a2a"/><ellipse cx="96.4" cy="108.2" rx="2" ry="1.3" fill="#e88a3a"/><ellipse cx="88.5" cy="100.1" rx="2" ry="1.3" fill="#e88a3a"/><ellipse cx="146.9" cy="102.0" rx="2" ry="1.3" fill="#d86a2a"/><ellipse cx="77.0" cy="104.9" rx="2" ry="1.3" fill="#f0a050"/><ellipse cx="66.5" cy="105.5" rx="2" ry="1.3" fill="#e88a3a"/><ellipse cx="43.0" cy="93.2" rx="2" ry="1.3" fill="#e88a3a"/><ellipse cx="63.1" cy="88.7" rx="2" ry="1.3" fill="#f0a050"/><ellipse cx="114.2" cy="101.8" rx="2" ry="1.3" fill="#e88a3a"/><ellipse cx="54.2" cy="110.1" rx="2" ry="1.3" fill="#c85a20"/><ellipse cx="62.7" cy="94.3" rx="2" ry="1.3" fill="#c85a20"/><ellipse cx="131.6" cy="108.4" rx="2" ry="1.3" fill="#f0a050"/><ellipse cx="89.2" cy="100.0" rx="2" ry="1.3" fill="#f0a050"/><ellipse cx="154.1" cy="101.5" rx="2" ry="1.3" fill="#c85a20"/><ellipse cx="115.8" cy="86.4" rx="2" ry="1.3" fill="#c85a20"/><ellipse cx="137.0" cy="110.9" rx="2" ry="1.3" fill="#c85a20"/><ellipse cx="140.7" cy="110.6" rx="2" ry="1.3" fill="#c85a20"/><ellipse cx="82.7" cy="107.7" rx="2" ry="1.3" fill="#f0a050"/><ellipse cx="54.9" cy="87.6" rx="2" ry="1.3" fill="#f0a050"/><ellipse cx="60.9" cy="91.3" rx="2" ry="1.3" fill="#d86a2a"/><ellipse cx="53.9" cy="97.3" rx="2" ry="1.3" fill="#f0a050"/><ellipse cx="58.0" cy="93.5" rx="2" ry="1.3" fill="#c85a20"/><ellipse cx="137.8" cy="99.0" rx="2" ry="1.3" fill="#e88a3a"/><ellipse cx="132.9" cy="105.0" rx="2" ry="1.3" fill="#c85a20"/><ellipse cx="77.8" cy="113.1" rx="2" ry="1.3" fill="#c85a20"/><ellipse cx="136.3" cy="88.3" rx="2" ry="1.3" fill="#f0a050"/><ellipse cx="72.1" cy="93.0" rx="2" ry="1.3" fill="#d86a2a"/><ellipse cx="63.6" cy="84.1" rx="2" ry="1.3" fill="#e88a3a"/><ellipse cx="72.3" cy="94.2" rx="2" ry="1.3" fill="#e88a3a"/><ellipse cx="143.4" cy="101.7" rx="2" ry="1.3" fill="#d86a2a"/><ellipse cx="44.6" cy="95.8" rx="2" ry="1.3" fill="#c85a20"/><ellipse cx="106.3" cy="87.6" rx="2" ry="1.3" fill="#f0a050"/><ellipse cx="114.1" cy="90.5" rx="2" ry="1.3" fill="#c85a20"/><ellipse cx="50.4" cy="91.7" rx="2" ry="1.3" fill="#e88a3a"/><ellipse cx="115.9" cy="108.5" rx="2" ry="1.3" fill="#e88a3a"/><ellipse cx="63.0" cy="103.3" rx="2" ry="1.3" fill="#c85a20"/><ellipse cx="113.4" cy="109.5" rx="2" ry="1.3" fill="#e88a3a"/><ellipse cx="65.3" cy="90.5" rx="2" ry="1.3" fill="#f0a050"/><ellipse cx="132.6" cy="86.2" rx="2" ry="1.3" fill="#e88a3a"/><ellipse cx="87.0" cy="86.2" rx="2" ry="1.3" fill="#f0a050"/><ellipse cx="38.8" cy="91.7" rx="2" ry="1.3" fill="#c85a20"/><ellipse cx="59.9" cy="99.4" rx="2" ry="1.3" fill="#c85a20"/><ellipse cx="143.1" cy="94.9" rx="2" ry="1.3" fill="#f0a050"/><ellipse cx="52.3" cy="95.4" rx="2" ry="1.3" fill="#f0a050"/><ellipse cx="72.4" cy="83.9" rx="2" ry="1.3" fill="#f0a050"/><ellipse cx="75.1" cy="84.2" rx="2" ry="1.3" fill="#e88a3a"/><ellipse cx="95.9" cy="109.8" rx="2" ry="1.3" fill="#c85a20"/><ellipse cx="133.6" cy="95.6" rx="2" ry="1.3" fill="#e88a3a"/><ellipse cx="80.8" cy="113.7" rx="2" ry="1.3" fill="#e88a3a"/><ellipse cx="157.6" cy="96.3" rx="2" ry="1.3" fill="#f0a050"/><ellipse cx="84.7" cy="84.4" rx="2" ry="1.3" fill="#e88a3a"/><ellipse cx="54.4" cy="98.8" rx="2" ry="1.3" fill="#d86a2a"/><ellipse cx="40.7" cy="91.9" rx="2" ry="1.3" fill="#d86a2a"/><ellipse cx="93.7" cy="89.0" rx="2" ry="1.3" fill="#d86a2a"/><ellipse cx="56.4" cy="92.4" rx="2" ry="1.3" fill="#d86a2a"/><ellipse cx="132.9" cy="91.5" rx="2" ry="1.3" fill="#d86a2a"/><ellipse cx="67.3" cy="110.4" rx="2" ry="1.3" fill="#f0a050"/><ellipse cx="108.2" cy="100.8" rx="2" ry="1.3" fill="#e88a3a"/><ellipse cx="117.8" cy="96.7" rx="2" ry="1.3" fill="#e88a3a"/><ellipse cx="147.5" cy="91.7" rx="2" ry="1.3" fill="#d86a2a"/><ellipse cx="99.5" cy="90.1" rx="2" ry="1.3" fill="#e88a3a"/><ellipse cx="116.2" cy="90.2" rx="2" ry="1.3" fill="#d86a2a"/><ellipse cx="68.2" cy="94.6" rx="2" ry="1.3" fill="#e88a3a"/><ellipse cx="143.9" cy="107.3" rx="2" ry="1.3" fill="#f0a050"/><ellipse cx="101.0" cy="101.8" rx="2" ry="1.3" fill="#c85a20"/><ellipse cx="125.9" cy="93.5" rx="2" ry="1.3" fill="#d86a2a"/><ellipse cx="102.2" cy="103.3" rx="2" ry="1.3" fill="#f0a050"/><ellipse cx="78.1" cy="108.2" rx="2" ry="1.3" fill="#f0a050"/><ellipse cx="89.7" cy="92.3" rx="2" ry="1.3" fill="#d86a2a"/><ellipse cx="163.6" cy="94.3" rx="2" ry="1.3" fill="#d86a2a"/><ellipse cx="129.2" cy="109.5" rx="2" ry="1.3" fill="#f0a050"/><ellipse cx="133.3" cy="90.0" rx="2" ry="1.3" fill="#d86a2a"/><ellipse cx="66.4" cy="86.0" rx="2" ry="1.3" fill="#d86a2a"/><ellipse cx="91.8" cy="106.8" rx="2" ry="1.3" fill="#c85a20"/><ellipse cx="153.9" cy="103.4" rx="2" ry="1.3" fill="#c85a20"/><ellipse cx="81.7" cy="91.3" rx="2" ry="1.3" fill="#d86a2a"/><ellipse cx="95.7" cy="82.4" rx="2" ry="1.3" fill="#f0a050"/><ellipse cx="161.6" cy="101.8" rx="2" ry="1.3" fill="#e88a3a"/><ellipse cx="47.5" cy="105.7" rx="2" ry="1.3" fill="#d86a2a"/><ellipse cx="111.5" cy="96.7" rx="2" ry="1.3" fill="#d86a2a"/><ellipse cx="130.2" cy="85.1" rx="2" ry="1.3" fill="#e88a3a"/><ellipse cx="122.3" cy="111.6" rx="2" ry="1.3" fill="#e88a3a"/><ellipse cx="124.7" cy="91.4" rx="2" ry="1.3" fill="#e88a3a"/><ellipse cx="135.1" cy="100.2" rx="2" ry="1.3" fill="#c85a20"/><ellipse cx="49.2" cy="88.1" rx="2" ry="1.3" fill="#c85a20"/><ellipse cx="77.3" cy="107.9" rx="2" ry="1.3" fill="#c85a20"/><ellipse cx="69.8" cy="88.5" rx="2" ry="1.3" fill="#f0a050"/><ellipse cx="118.6" cy="94.0" rx="2" ry="1.3" fill="#d86a2a"/><ellipse cx="65.5" cy="97.8" rx="2" ry="1.3" fill="#c85a20"/><ellipse cx="113.7" cy="88.9" rx="2" ry="1.3" fill="#f0a050"/><ellipse cx="93.7" cy="84.4" rx="2" ry="1.3" fill="#f0a050"/><ellipse cx="98.5" cy="96.0" rx="2" ry="1.3" fill="#e88a3a"/><ellipse cx="81.3" cy="105.9" rx="2" ry="1.3" fill="#e88a3a"/><ellipse cx="86.7" cy="91.4" rx="2" ry="1.3" fill="#c85a20"/><ellipse cx="59.6" cy="89.3" rx="2" ry="1.3" fill="#d86a2a"/><ellipse cx="64.2" cy="104.2" rx="2" ry="1.3" fill="#d86a2a"/><ellipse cx="80.4" cy="107.5" rx="2" ry="1.3" fill="#d86a2a"/><ellipse cx="154.0" cy="107.5" rx="2" ry="1.3" fill="#f0a050"/><ellipse cx="36.8" cy="100.3" rx="2" ry="1.3" fill="#f0a050"/><ellipse cx="140.8" cy="98.5" rx="2" ry="1.3" fill="#f0a050"/><ellipse cx="67.8" cy="100.9" rx="2" ry="1.3" fill="#f0a050"/><ellipse cx="75.8" cy="109.4" rx="2" ry="1.3" fill="#d86a2a"/><ellipse cx="69.7" cy="94.2" rx="2" ry="1.3" fill="#d86a2a"/><ellipse cx="79.6" cy="104.4" rx="2" ry="1.3" fill="#e88a3a"/><ellipse cx="77.8" cy="87.9" rx="2" ry="1.3" fill="#d86a2a"/><ellipse cx="129.4" cy="109.9" rx="2" ry="1.3" fill="#f0a050"/><ellipse cx="155.1" cy="90.6" rx="2" ry="1.3" fill="#f0a050"/><ellipse cx="106.8" cy="84.0" rx="2" ry="1.3" fill="#c85a20"/><ellipse cx="58.8" cy="85.4" rx="2" ry="1.3" fill="#d86a2a"/><ellipse cx="79.1" cy="103.9" rx="2" ry="1.3" fill="#d86a2a"/><ellipse cx="144.0" cy="94.9" rx="2" ry="1.3" fill="#e88a3a"/><ellipse cx="37.0" cy="102.7" rx="2" ry="1.3" fill="#e88a3a"/><ellipse cx="61.2" cy="108.2" rx="2" ry="1.3" fill="#f0a050"/><ellipse cx="149.0" cy="90.3" rx="2" ry="1.3" fill="#c85a20"/><ellipse cx="119.2" cy="83.4" rx="2" ry="1.3" fill="#d86a2a"/><ellipse cx="104.0" cy="84.0" rx="2" ry="1.3" fill="#d86a2a"/><ellipse cx="51.7" cy="89.5" rx="2" ry="1.3" fill="#c85a20"/><circle cx="133" cy="92" r="2.4" fill="#d8321e" opacity=".8"/><circle cx="152" cy="101" r="2.4" fill="#d8321e" opacity=".8"/><circle cx="79" cy="111" r="2.4" fill="#d8321e" opacity=".8"/><circle cx="59" cy="92" r="2.4" fill="#d8321e" opacity=".8"/><circle cx="92" cy="89" r="2.4" fill="#d8321e" opacity=".8"/><circle cx="120" cy="101" r="2.4" fill="#d8321e" opacity=".8"/><circle cx="103" cy="111" r="2.4" fill="#d8321e" opacity=".8"/><circle cx="60" cy="107" r="2.4" fill="#d8321e" opacity=".8"/></g><g transform="translate(118 90) rotate(10)"><path d="M0 0 q-6 -8 -12 -4 q2 7 12 4z" fill="#4f9a2a"/><path d="M0 0 q6 -9 12 -4 q-3 7 -12 4z" fill="#5aa832"/></g><ellipse cx="79" cy="107" rx="2.2" ry="1.3" fill="#3f8a22" transform="rotate(69 79 107)"/><ellipse cx="132" cy="107" rx="2.2" ry="1.3" fill="#3f8a22" transform="rotate(115 132 107)"/><ellipse cx="94" cy="90" rx="2.2" ry="1.3" fill="#3f8a22" transform="rotate(125 94 90)"/><ellipse cx="111" cy="98" rx="2.2" ry="1.3" fill="#3f8a22" transform="rotate(58 111 98)"/><ellipse cx="58" cy="102" rx="2.2" ry="1.3" fill="#3f8a22" transform="rotate(91 58 102)"/><ellipse cx="76" cy="107" rx="2.2" ry="1.3" fill="#3f8a22" transform="rotate(141 76 107)"/><ellipse cx="130" cy="96" rx="2.2" ry="1.3" fill="#3f8a22" transform="rotate(96 130 96)"/><ellipse cx="101" cy="96" rx="2.2" ry="1.3" fill="#3f8a22" transform="rotate(110 101 96)"/></svg>