<svg xmlns="http://www.w3.org/2000/svg" viewBox="0 0 200 200">
<defs><linearGradient id="bw" x1="0" x2="0" y1="0" y2="1"><stop offset="0" stop-color="#2a2a30"/><stop offset="1" stop-color="#101014"/></linearGradient>
<radialGradient id="s" cx=".45" cy=".4" r=".75"><stop offset="0" stop-color="#fbe2b0"/><stop offset=".6" stop-color="#f2bf7a"/><stop offset="1" stop-color="#e09a52"/></radialGradient>
<clipPath id="cl"><ellipse cx="100" cy="98" rx="68" ry="18"/></clipPath></defs>
<ellipse cx="100" cy="164" rx="72" ry="10" fill="#000" opacity=".2"/>
<path d="M22 96 Q28 160 100 164 Q172 160 178 96 Z" fill="url(#bw)"/>
<g stroke="#c8a040" stroke-width="1.2" fill="none" opacity=".7"><path d="M30 118 Q100 136 170 118"/></g>
<ellipse cx="100" cy="96" rx="78" ry="24" fill="#3a3a42"/>
<ellipse cx="100" cy="98" rx="68" ry="18" fill="url(#s)"/>
<g clip-path="url(#cl)"><ellipse cx="52" cy="100" rx="4.1" ry="1.7" fill="#e0501e" opacity=".55"/><ellipse cx="89" cy="93" rx="2.3" ry="1.2" fill="#e0501e" opacity=".55"/><ellipse cx="137" cy="99" rx="3.1" ry="1.5" fill="#e0501e" opacity=".55"/><ellipse cx="92" cy="111" rx="4.4" ry="1.5" fill="#e0501e" opacity=".55"/><ellipse cx="83" cy="87" rx="2.1" ry="1.8" fill="#e0501e" opacity=".55"/><ellipse cx="54" cy="94" rx="3.3" ry="1.5" fill="#e0501e" opacity=".55"/><ellipse cx="124" cy="106" rx="2.7" ry="1.4" fill="#e0501e" opacity=".55"/><ellipse cx="130" cy="110" rx="3.2" ry="1.8" fill="#e0501e" opacity=".55"/><ellipse cx="151" cy="103" rx="2.3" ry="1.5" fill="#e0501e" opacity=".55"/><ellipse cx="144" cy="104" rx="2.5" ry="1.7" fill="#e0501e" opacity=".55"/><ellipse cx="80" cy="106" rx="2.1" ry="1.3" fill="#e0501e" opacity=".55"/><ellipse cx="104" cy="96" rx="3.0" ry="1.6" fill="#e0501e" opacity=".55"/><ellipse cx="153" cy="103" rx="2.2" ry="1.5" fill="#e0501e" opacity=".55"/><ellipse cx="82" cy="98" rx="2.6" ry="1.3" fill="#e0501e" opacity=".55"/><ellipse cx="158" cy="97" rx="3.4" ry="2.0" fill="#e0501e" opacity=".55"/><ellipse cx="130" cy="104" rx="3.4" ry="2.0" fill="#e0501e" opacity=".55"/><ellipse cx="122" cy="104" rx="2.5" ry="1.9" fill="#e0501e" opacity=".55"/><ellipse cx="82" cy="94" rx="3.1" ry="1.2" fill="#e0501e" opacity=".55"/><ellipse cx="96" cy="95" rx="4.2" ry="1.9" fill="#e0501e" opacity=".55"/><ellipse cx="126" cy="110" rx="2.0" ry="1.3" fill="#e0501e" opacity=".55"/><ellipse cx="69" cy="104" rx="4.3" ry="1.3" fill="#e0501e" opacity=".55"/><ellipse cx="66" cy="92" rx="2.7" ry="1.0" fill="#e0501e" opacity=".55"/><ellipse cx="92" cy="100" rx="2.1" ry="1.6" fill="#e0501e" opacity=".55"/><ellipse cx="91" cy="83" rx="5.0" ry="2.0" fill="#e0501e" opacity=".55"/><ellipse cx="148" cy="96" rx="3.5" ry="1.0" fill="#e0501e" opacity=".55"/><ellipse cx="78" cy="105" rx="3.0" ry="1.8" fill="#e0501e" opacity=".55"/><rect x="115" y="90" width="10" height="7" rx="2.5" fill="#f2e4c8" stroke="#c8a878" stroke-width=".7"/><rect x="100" y="106" width="10" height="7" rx="2.5" fill="#f2e4c8" stroke="#c8a878" stroke-width=".7"/><rect x="58" y="99" width="10" height="7" rx="2.5" fill="#f2e4c8" stroke="#c8a878" stroke-width=".7"/><rect x="92" y="109" width="10" height="7" rx="2.5" fill="#f2e4c8" stroke="#c8a878" stroke-width=".7"/><rect x="111" y="95" width="10" height="7" rx="2.5" fill="#f2e4c8" stroke="#c8a878" stroke-width=".7"/><rect x="84" y="108" width="10" height="7" rx="2.5" fill="#f2e4c8" stroke="#c8a878" stroke-width=".7"/><g transform="translate(91 109) rotate(-24)"><rect x="-6" y="-2" width="12" height="4" rx="2" fill="#dfe8a8" stroke="#a8b860" stroke-width=".7"/></g><g transform="translate(57 97) rotate(31)"><rect x="-6" y="-2" width="12" height="4" rx="2" fill="#dfe8a8" stroke="#a8b860" stroke-width=".7"/></g><g transform="translate(93 93) rotate(-6)"><rect x="-6" y="-2" width="12" height="4" rx="2" fill="#dfe8a8" stroke="#a8b860" stroke-width=".7"/></g><g transform="translate(94 104) rotate(13)"><rect x="-6" y="-2" width="12" height="4" rx="2" fill="#dfe8a8" stroke="#a8b860" stroke-width=".7"/></g><g transform="translate(82 89) rotate(-23)"><rect x="-6" y="-2" width="12" height="4" rx="2" fill="#dfe8a8" stroke="#a8b860" stroke-width=".7"/></g><circle cx="102" cy="106" r="2.6" fill="none" stroke="#d8141e" stroke-width="1.6"/><circle cx="137" cy="97" r="2.6" fill="none" stroke="#d8141e" stroke-width="1.6"/><circle cx="66" cy="90" r="2.6" fill="none" stroke="#d8141e" stroke-width="1.6"/><circle cx="142" cy="96" r="2.6" fill="none" stroke="#d8141e" stroke-width="1.6"/><circle cx="67" cy="103" r="2.6" fill="none" stroke="#d8141e" stroke-width="1.6"/><circle cx="136" cy="92" r="2.6" fill="none" stroke="#d8141e" stroke-width="1.6"/><g transform="translate(74 95)"><circle r="2.6" fill="#3f8a22"/><circle cx="2.2" cy="-1.4" r="2.2" fill="#4f9a2a"/><circle cx="-2" cy="-1.6" r="2" fill="#5aa832"/></g><g transform="translate(71 106)"><circle r="2.6" fill="#3f8a22"/><circle cx="2.2" cy="-1.4" r="2.2" fill="#4f9a2a"/><circle cx="-2" cy="-1.6" r="2" fill="#5aa832"/></g><g transform="translate(94 97)"><circle r="2.6" fill="#3f8a22"/><circle cx="2.2" cy="-1.4" r="2.2" fill="#4f9a2a"/><circle cx="-2" cy="-1.6" r="2" fill="#5aa832"/></g><g transform="translate(88 87)"><circle r="2.6" fill="#3f8a22"/><circle cx="2.2" cy="-1.4" r="2.2" fill="#4f9a2a"/><circle cx="-2" cy="-1.6" r="2" fill="#5aa832"/></g><g transform="translate(114 87)"><circle r="2.6" fill="#3f8a22"/><circle cx="2.2" cy="-1.4" r="2.2" fill="#4f9a2a"/><circle cx="-2" cy="-1.6" r="2" fill="#5aa832"/></g><g transform="translate(131 93)"><circle r="2.6" fill="#3f8a22"/><circle cx="2.2" cy="-1.4" r="2.2" fill="#4f9a2a"/><circle cx="-2" cy="-1.6" r="2" fill="#5aa832"/></g><g transform="translate(107 91)"><circle r="2.6" fill="#3f8a22"/><circle cx="2.2" cy="-1.4" r="2.2" fill="#4f9a2a"/><circle cx="-2" cy="-1.6" r="2" fill="#5aa832"/></g></g>
<path d="M52 92 q30 -10 60 -6" stroke="#fff" stroke-opacity=".35" stroke-width="3" fill="none" stroke-linecap="round"/>
<g transform="translate(160 78)"><path d="M-14 0 a14 9 0 0 0 28 0z" fill="#5aa832"/><path d="M-11 0 a11 6.5 0 0 0 22 0z" fill="#d8f0a0"/></g>
<g transform="translate(40 70) rotate(-30)"><rect x="-3" y="-22" width="6" height="44" rx="3" fill="#dfe8a8" stroke="#a8b860"/><path d="M0 -22 q-4 -10 2 -16" stroke="#8aa840" stroke-width="2" fill="none"/></g>
</svg>