<svg xmlns="http://www.w3.org/2000/svg" viewBox="0 0 200 200">
<defs><linearGradient id="w" x1="0" x2="0" y1="0" y2="1"><stop offset="0" stop-color="#4a4f57"/><stop offset="1" stop-color="#1c1f24"/></linearGradient>
<clipPath id="c"><ellipse cx="100" cy="98" rx="66" ry="18"/></clipPath></defs>
<ellipse cx="96" cy="150" rx="80" ry="11" fill="#000" opacity=".2"/>
<path d="M170 96 L196 84" stroke="#2a2d33" stroke-width="8" stroke-linecap="round"/>
<path d="M22 96 Q30 146 100 148 Q170 146 178 96 Z" fill="url(#w)"/>
<ellipse cx="100" cy="96" rx="78" ry="22" fill="#5b616a"/>
<ellipse cx="100" cy="98" rx="70" ry="19" fill="#2a2d33"/>
<g clip-path="url(#c)"><ellipse cx="100" cy="98" rx="66" ry="18" fill="#efd58a"/><ellipse cx="72.4" cy="89.3" rx="2.6" ry="1.2" fill="#f0d890" transform="rotate(112 72.4 89.3)"/><ellipse cx="102.1" cy="95.7" rx="2.6" ry="1.2" fill="#e8c878" transform="rotate(56 102.1 95.7)"/><ellipse cx="109.1" cy="82.0" rx="2.6" ry="1.2" fill="#f6e6b0" transform="rotate(88 109.1 82.0)"/><ellipse cx="74.9" cy="98.4" rx="2.6" ry="1.2" fill="#fbefc8" transform="rotate(83 74.9 98.4)"/><ellipse cx="88.0" cy="89.3" rx="2.6" ry="1.2" fill="#f6e6b0" transform="rotate(116 88.0 89.3)"/><ellipse cx="109.4" cy="104.1" rx="2.6" ry="1.2" fill="#f0d890" transform="rotate(39 109.4 104.1)"/><ellipse cx="103.8" cy="103.6" rx="2.6" ry="1.2" fill="#f6e6b0" transform="rotate(160 103.8 103.6)"/><ellipse cx="55.2" cy="106.3" rx="2.6" ry="1.2" fill="#f0d890" transform="rotate(179 55.2 106.3)"/><ellipse cx="85.8" cy="86.1" rx="2.6" ry="1.2" fill="#f6e6b0" transform="rotate(62 85.8 86.1)"/><ellipse cx="108.9" cy="110.6" rx="2.6" ry="1.2" fill="#f0d890" transform="rotate(52 108.9 110.6)"/><ellipse cx="49.9" cy="104.3" rx="2.6" ry="1.2" fill="#f6e6b0" transform="rotate(102 49.9 104.3)"/><ellipse cx="88.7" cy="107.1" rx="2.6" ry="1.2" fill="#fbefc8" transform="rotate(106 88.7 107.1)"/><ellipse cx="142.8" cy="100.6" rx="2.6" ry="1.2" fill="#e8c878" transform="rotate(148 142.8 100.6)"/><ellipse cx="88.0" cy="98.4" rx="2.6" ry="1.2" fill="#f6e6b0" transform="rotate(65 88.0 98.4)"/><ellipse cx="108.6" cy="83.8" rx="2.6" ry="1.2" fill="#f0d890" transform="rotate(74 108.6 83.8)"/><ellipse cx="72.7" cy="109.7" rx="2.6" ry="1.2" fill="#fbefc8" transform="rotate(99 72.7 109.7)"/><ellipse cx="129.0" cy="93.4" rx="2.6" ry="1.2" fill="#f6e6b0" transform="rotate(73 129.0 93.4)"/><ellipse cx="62.7" cy="92.0" rx="2.6" ry="1.2" fill="#f0d890" transform="rotate(38 62.7 92.0)"/><ellipse cx="85.3" cy="107.8" rx="2.6" ry="1.2" fill="#fbefc8" transform="rotate(169 85.3 107.8)"/><ellipse cx="73.9" cy="83.5" rx="2.6" ry="1.2" fill="#f6e6b0" transform="rotate(95 73.9 83.5)"/><ellipse cx="98.5" cy="82.5" rx="2.6" ry="1.2" fill="#f6e6b0" transform="rotate(160 98.5 82.5)"/><ellipse cx="128.5" cy="96.6" rx="2.6" ry="1.2" fill="#fbefc8" transform="rotate(50 128.5 96.6)"/><ellipse cx="147.0" cy="101.9" rx="2.6" ry="1.2" fill="#fbefc8" transform="rotate(111 147.0 101.9)"/><ellipse cx="123.0" cy="113.0" rx="2.6" ry="1.2" fill="#e8c878" transform="rotate(128 123.0 113.0)"/><ellipse cx="103.4" cy="100.9" rx="2.6" ry="1.2" fill="#f0d890" transform="rotate(42 103.4 100.9)"/><ellipse cx="124.4" cy="90.7" rx="2.6" ry="1.2" fill="#f0d890" transform="rotate(166 124.4 90.7)"/><ellipse cx="130.1" cy="96.1" rx="2.6" ry="1.2" fill="#fbefc8" transform="rotate(135 130.1 96.1)"/><ellipse cx="115.3" cy="91.9" rx="2.6" ry="1.2" fill="#f0d890" transform="rotate(177 115.3 91.9)"/><ellipse cx="84.1" cy="102.7" rx="2.6" ry="1.2" fill="#fbefc8" transform="rotate(166 84.1 102.7)"/><ellipse cx="131.1" cy="109.1" rx="2.6" ry="1.2" fill="#f6e6b0" transform="rotate(14 131.1 109.1)"/><ellipse cx="101.5" cy="115.0" rx="2.6" ry="1.2" fill="#fbefc8" transform="rotate(143 101.5 115.0)"/><ellipse cx="55.4" cy="109.5" rx="2.6" ry="1.2" fill="#f0d890" transform="rotate(101 55.4 109.5)"/><ellipse cx="146.4" cy="100.2" rx="2.6" ry="1.2" fill="#fbefc8" transform="rotate(54 146.4 100.2)"/><ellipse cx="113.3" cy="85.2" rx="2.6" ry="1.2" fill="#f0d890" transform="rotate(31 113.3 85.2)"/><ellipse cx="140.7" cy="86.4" rx="2.6" ry="1.2" fill="#e8c878" transform="rotate(48 140.7 86.4)"/><ellipse cx="48.1" cy="98.1" rx="2.6" ry="1.2" fill="#f0d890" transform="rotate(42 48.1 98.1)"/><ellipse cx="77.1" cy="88.8" rx="2.6" ry="1.2" fill="#fbefc8" transform="rotate(33 77.1 88.8)"/><ellipse cx="86.5" cy="97.5" rx="2.6" ry="1.2" fill="#f6e6b0" transform="rotate(23 86.5 97.5)"/><ellipse cx="110.4" cy="102.9" rx="2.6" ry="1.2" fill="#e8c878" transform="rotate(12 110.4 102.9)"/><ellipse cx="131.7" cy="102.4" rx="2.6" ry="1.2" fill="#f0d890" transform="rotate(130 131.7 102.4)"/><ellipse cx="56.5" cy="91.2" rx="2.6" ry="1.2" fill="#fbefc8" transform="rotate(105 56.5 91.2)"/><ellipse cx="106.4" cy="81.5" rx="2.6" ry="1.2" fill="#f6e6b0" transform="rotate(71 106.4 81.5)"/><ellipse cx="69.8" cy="109.6" rx="2.6" ry="1.2" fill="#fbefc8" transform="rotate(118 69.8 109.6)"/><ellipse cx="75.5" cy="91.3" rx="2.6" ry="1.2" fill="#fbefc8" transform="rotate(89 75.5 91.3)"/><ellipse cx="124.1" cy="105.5" rx="2.6" ry="1.2" fill="#fbefc8" transform="rotate(52 124.1 105.5)"/><ellipse cx="62.2" cy="86.6" rx="2.6" ry="1.2" fill="#fbefc8" transform="rotate(41 62.2 86.6)"/><ellipse cx="136.2" cy="98.2" rx="2.6" ry="1.2" fill="#f0d890" transform="rotate(88 136.2 98.2)"/><ellipse cx="84.6" cy="86.7" rx="2.6" ry="1.2" fill="#f6e6b0" transform="rotate(7 84.6 86.7)"/><ellipse cx="121.7" cy="109.4" rx="2.6" ry="1.2" fill="#f0d890" transform="rotate(32 121.7 109.4)"/><ellipse cx="128.0" cy="87.0" rx="2.6" ry="1.2" fill="#f0d890" transform="rotate(155 128.0 87.0)"/><ellipse cx="101.3" cy="92.7" rx="2.6" ry="1.2" fill="#fbefc8" transform="rotate(105 101.3 92.7)"/><ellipse cx="99.5" cy="105.9" rx="2.6" ry="1.2" fill="#e8c878" transform="rotate(98 99.5 105.9)"/><ellipse cx="114.8" cy="82.8" rx="2.6" ry="1.2" fill="#f6e6b0" transform="rotate(62 114.8 82.8)"/><ellipse cx="91.0" cy="105.7" rx="2.6" ry="1.2" fill="#e8c878" transform="rotate(48 91.0 105.7)"/><ellipse cx="117.9" cy="97.9" rx="2.6" ry="1.2" fill="#e8c878" transform="rotate(117 117.9 97.9)"/><ellipse cx="85.7" cy="82.0" rx="2.6" ry="1.2" fill="#f0d890" transform="rotate(47 85.7 82.0)"/><ellipse cx="92.1" cy="87.0" rx="2.6" ry="1.2" fill="#f6e6b0" transform="rotate(97 92.1 87.0)"/><ellipse cx="115.3" cy="95.4" rx="2.6" ry="1.2" fill="#e8c878" transform="rotate(42 115.3 95.4)"/><ellipse cx="124.2" cy="83.2" rx="2.6" ry="1.2" fill="#f6e6b0" transform="rotate(7 124.2 83.2)"/><ellipse cx="144.6" cy="97.1" rx="2.6" ry="1.2" fill="#f6e6b0" transform="rotate(161 144.6 97.1)"/><ellipse cx="144.1" cy="87.7" rx="2.6" ry="1.2" fill="#e8c878" transform="rotate(23 144.1 87.7)"/><ellipse cx="66.6" cy="93.4" rx="2.6" ry="1.2" fill="#e8c878" transform="rotate(112 66.6 93.4)"/><ellipse cx="68.2" cy="98.6" rx="2.6" ry="1.2" fill="#fbefc8" transform="rotate(163 68.2 98.6)"/><ellipse cx="102.5" cy="90.0" rx="2.6" ry="1.2" fill="#f6e6b0" transform="rotate(36 102.5 90.0)"/><ellipse cx="121.4" cy="107.2" rx="2.6" ry="1.2" fill="#fbefc8" transform="rotate(142 121.4 107.2)"/><ellipse cx="97.3" cy="108.1" rx="2.6" ry="1.2" fill="#f6e6b0" transform="rotate(94 97.3 108.1)"/><ellipse cx="86.3" cy="97.2" rx="2.6" ry="1.2" fill="#f6e6b0" transform="rotate(164 86.3 97.2)"/><ellipse cx="109.0" cy="106.0" rx="2.6" ry="1.2" fill="#fbefc8" transform="rotate(120 109.0 106.0)"/><ellipse cx="85.5" cy="113.0" rx="2.6" ry="1.2" fill="#e8c878" transform="rotate(71 85.5 113.0)"/><ellipse cx="106.9" cy="84.0" rx="2.6" ry="1.2" fill="#fbefc8" transform="rotate(81 106.9 84.0)"/><ellipse cx="60.0" cy="88.2" rx="2.6" ry="1.2" fill="#e8c878" transform="rotate(58 60.0 88.2)"/><ellipse cx="59.9" cy="85.9" rx="2.6" ry="1.2" fill="#fbefc8" transform="rotate(52 59.9 85.9)"/><ellipse cx="71.0" cy="83.2" rx="2.6" ry="1.2" fill="#f0d890" transform="rotate(24 71.0 83.2)"/><ellipse cx="125.1" cy="95.5" rx="2.6" ry="1.2" fill="#e8c878" transform="rotate(108 125.1 95.5)"/><ellipse cx="73.5" cy="93.0" rx="2.6" ry="1.2" fill="#fbefc8" transform="rotate(22 73.5 93.0)"/><ellipse cx="133.0" cy="87.8" rx="2.6" ry="1.2" fill="#f6e6b0" transform="rotate(75 133.0 87.8)"/><ellipse cx="85.7" cy="96.4" rx="2.6" ry="1.2" fill="#f0d890" transform="rotate(178 85.7 96.4)"/><ellipse cx="154.3" cy="99.0" rx="2.6" ry="1.2" fill="#f0d890" transform="rotate(163 154.3 99.0)"/><ellipse cx="63.6" cy="102.7" rx="2.6" ry="1.2" fill="#e8c878" transform="rotate(66 63.6 102.7)"/><ellipse cx="80.6" cy="93.1" rx="2.6" ry="1.2" fill="#f0d890" transform="rotate(3 80.6 93.1)"/><ellipse cx="85.3" cy="81.8" rx="2.6" ry="1.2" fill="#e8c878" transform="rotate(50 85.3 81.8)"/><ellipse cx="139.1" cy="89.3" rx="2.6" ry="1.2" fill="#fbefc8" transform="rotate(161 139.1 89.3)"/><ellipse cx="80.1" cy="88.8" rx="2.6" ry="1.2" fill="#fbefc8" transform="rotate(150 80.1 88.8)"/><ellipse cx="96.7" cy="89.9" rx="2.6" ry="1.2" fill="#fbefc8" transform="rotate(64 96.7 89.9)"/><ellipse cx="74.5" cy="105.1" rx="2.6" ry="1.2" fill="#e8c878" transform="rotate(131 74.5 105.1)"/><ellipse cx="147.8" cy="102.9" rx="2.6" ry="1.2" fill="#f0d890" transform="rotate(47 147.8 102.9)"/><ellipse cx="140.0" cy="106.3" rx="2.6" ry="1.2" fill="#f0d890" transform="rotate(43 140.0 106.3)"/><ellipse cx="103.4" cy="91.0" rx="2.6" ry="1.2" fill="#f6e6b0" transform="rotate(8 103.4 91.0)"/><ellipse cx="155.0" cy="93.8" rx="2.6" ry="1.2" fill="#e8c878" transform="rotate(145 155.0 93.8)"/><ellipse cx="79.5" cy="93.9" rx="2.6" ry="1.2" fill="#e8c878" transform="rotate(96 79.5 93.9)"/><ellipse cx="118.2" cy="87.5" rx="2.6" ry="1.2" fill="#f6e6b0" transform="rotate(42 118.2 87.5)"/><ellipse cx="136.5" cy="111.1" rx="2.6" ry="1.2" fill="#e8c878" transform="rotate(164 136.5 111.1)"/><ellipse cx="82.3" cy="93.1" rx="2.6" ry="1.2" fill="#e8c878" transform="rotate(87 82.3 93.1)"/><ellipse cx="137.4" cy="107.4" rx="2.6" ry="1.2" fill="#f0d890" transform="rotate(25 137.4 107.4)"/><ellipse cx="127.2" cy="104.4" rx="2.6" ry="1.2" fill="#f6e6b0" transform="rotate(97 127.2 104.4)"/><ellipse cx="111.2" cy="88.6" rx="2.6" ry="1.2" fill="#e8c878" transform="rotate(122 111.2 88.6)"/><ellipse cx="91.9" cy="113.2" rx="2.6" ry="1.2" fill="#e8c878" transform="rotate(13 91.9 113.2)"/><ellipse cx="100.6" cy="81.2" rx="2.6" ry="1.2" fill="#fbefc8" transform="rotate(37 100.6 81.2)"/><ellipse cx="72.6" cy="107.4" rx="2.6" ry="1.2" fill="#fbefc8" transform="rotate(25 72.6 107.4)"/><ellipse cx="61.7" cy="101.0" rx="2.6" ry="1.2" fill="#e8c878" transform="rotate(122 61.7 101.0)"/><ellipse cx="104.3" cy="82.1" rx="2.6" ry="1.2" fill="#f6e6b0" transform="rotate(105 104.3 82.1)"/><ellipse cx="102.5" cy="114.2" rx="2.6" ry="1.2" fill="#fbefc8" transform="rotate(61 102.5 114.2)"/><ellipse cx="68.2" cy="99.5" rx="2.6" ry="1.2" fill="#e8c878" transform="rotate(59 68.2 99.5)"/><ellipse cx="111.5" cy="82.0" rx="2.6" ry="1.2" fill="#e8c878" transform="rotate(97 111.5 82.0)"/><ellipse cx="145.8" cy="88.0" rx="2.6" ry="1.2" fill="#f0d890" transform="rotate(80 145.8 88.0)"/><ellipse cx="64.3" cy="109.5" rx="2.6" ry="1.2" fill="#fbefc8" transform="rotate(175 64.3 109.5)"/><ellipse cx="42.6" cy="103.5" rx="2.6" ry="1.2" fill="#f6e6b0" transform="rotate(70 42.6 103.5)"/><ellipse cx="119.2" cy="100.5" rx="2.6" ry="1.2" fill="#e8c878" transform="rotate(167 119.2 100.5)"/><ellipse cx="45.9" cy="100.9" rx="2.6" ry="1.2" fill="#e8c878" transform="rotate(84 45.9 100.9)"/><ellipse cx="65.4" cy="105.9" rx="2.6" ry="1.2" fill="#f6e6b0" transform="rotate(35 65.4 105.9)"/><ellipse cx="123.8" cy="111.2" rx="2.6" ry="1.2" fill="#f6e6b0" transform="rotate(51 123.8 111.2)"/><ellipse cx="72.7" cy="105.8" rx="2.6" ry="1.2" fill="#e8c878" transform="rotate(125 72.7 105.8)"/><ellipse cx="135.0" cy="105.6" rx="2.6" ry="1.2" fill="#f0d890" transform="rotate(22 135.0 105.6)"/><ellipse cx="113.0" cy="87.9" rx="2.6" ry="1.2" fill="#e8c878" transform="rotate(48 113.0 87.9)"/><ellipse cx="74.5" cy="102.1" rx="2.6" ry="1.2" fill="#fbefc8" transform="rotate(52 74.5 102.1)"/><ellipse cx="149.6" cy="99.6" rx="2.6" ry="1.2" fill="#f0d890" transform="rotate(13 149.6 99.6)"/><ellipse cx="80.3" cy="107.3" rx="2.6" ry="1.2" fill="#f0d890" transform="rotate(145 80.3 107.3)"/><ellipse cx="130.2" cy="104.9" rx="2.6" ry="1.2" fill="#f6e6b0" transform="rotate(149 130.2 104.9)"/><ellipse cx="150.1" cy="90.0" rx="2.6" ry="1.2" fill="#f6e6b0" transform="rotate(176 150.1 90.0)"/><ellipse cx="102.2" cy="82.3" rx="2.6" ry="1.2" fill="#e8c878" transform="rotate(98 102.2 82.3)"/><ellipse cx="86.4" cy="100.0" rx="2.6" ry="1.2" fill="#e8c878" transform="rotate(167 86.4 100.0)"/><ellipse cx="98.8" cy="100.4" rx="2.6" ry="1.2" fill="#f0d890" transform="rotate(8 98.8 100.4)"/><ellipse cx="145.2" cy="95.5" rx="2.6" ry="1.2" fill="#e8c878" transform="rotate(80 145.2 95.5)"/><ellipse cx="139.8" cy="94.1" rx="2.6" ry="1.2" fill="#f6e6b0" transform="rotate(148 139.8 94.1)"/><ellipse cx="133.5" cy="85.7" rx="2.6" ry="1.2" fill="#f6e6b0" transform="rotate(67 133.5 85.7)"/><ellipse cx="98.7" cy="88.6" rx="2.6" ry="1.2" fill="#f6e6b0" transform="rotate(33 98.7 88.6)"/><ellipse cx="156.8" cy="93.9" rx="2.6" ry="1.2" fill="#f6e6b0" transform="rotate(67 156.8 93.9)"/><ellipse cx="75.1" cy="97.5" rx="2.6" ry="1.2" fill="#f0d890" transform="rotate(6 75.1 97.5)"/><ellipse cx="131.3" cy="96.8" rx="2.6" ry="1.2" fill="#f6e6b0" transform="rotate(134 131.3 96.8)"/><ellipse cx="75.6" cy="107.6" rx="2.6" ry="1.2" fill="#fbefc8" transform="rotate(18 75.6 107.6)"/><ellipse cx="50.9" cy="99.2" rx="2.6" ry="1.2" fill="#fbefc8" transform="rotate(62 50.9 99.2)"/><ellipse cx="64.8" cy="96.0" rx="2.6" ry="1.2" fill="#f6e6b0" transform="rotate(40 64.8 96.0)"/><ellipse cx="115.4" cy="84.3" rx="2.6" ry="1.2" fill="#e8c878" transform="rotate(148 115.4 84.3)"/><ellipse cx="123.2" cy="108.6" rx="2.6" ry="1.2" fill="#e8c878" transform="rotate(66 123.2 108.6)"/><ellipse cx="115.4" cy="96.3" rx="2.6" ry="1.2" fill="#f0d890" transform="rotate(66 115.4 96.3)"/><ellipse cx="111.1" cy="92.4" rx="2.6" ry="1.2" fill="#f0d890" transform="rotate(122 111.1 92.4)"/><ellipse cx="143.6" cy="91.6" rx="2.6" ry="1.2" fill="#f0d890" transform="rotate(51 143.6 91.6)"/><ellipse cx="153.5" cy="92.4" rx="2.6" ry="1.2" fill="#fbefc8" transform="rotate(13 153.5 92.4)"/><ellipse cx="114.8" cy="93.4" rx="2.6" ry="1.2" fill="#fbefc8" transform="rotate(72 114.8 93.4)"/><ellipse cx="47.1" cy="106.1" rx="2.6" ry="1.2" fill="#fbefc8" transform="rotate(92 47.1 106.1)"/><ellipse cx="78.7" cy="103.1" rx="2.6" ry="1.2" fill="#f0d890" transform="rotate(87 78.7 103.1)"/><ellipse cx="107.8" cy="95.8" rx="2.6" ry="1.2" fill="#fbefc8" transform="rotate(62 107.8 95.8)"/><ellipse cx="51.4" cy="95.6" rx="2.6" ry="1.2" fill="#e8c878" transform="rotate(56 51.4 95.6)"/><ellipse cx="78.8" cy="90.4" rx="2.6" ry="1.2" fill="#f0d890" transform="rotate(141 78.8 90.4)"/><ellipse cx="148.2" cy="98.7" rx="2.6" ry="1.2" fill="#f6e6b0" transform="rotate(117 148.2 98.7)"/><ellipse cx="128.1" cy="109.6" rx="2.6" ry="1.2" fill="#e8c878" transform="rotate(134 128.1 109.6)"/><ellipse cx="134.4" cy="111.8" rx="2.6" ry="1.2" fill="#e8c878" transform="rotate(111 134.4 111.8)"/><ellipse cx="88.2" cy="90.6" rx="2.6" ry="1.2" fill="#f6e6b0" transform="rotate(87 88.2 90.6)"/><ellipse cx="40.1" cy="99.9" rx="2.6" ry="1.2" fill="#e8c878" transform="rotate(81 40.1 99.9)"/><ellipse cx="94.2" cy="114.4" rx="2.6" ry="1.2" fill="#fbefc8" transform="rotate(4 94.2 114.4)"/><ellipse cx="97.4" cy="107.4" rx="2.6" ry="1.2" fill="#f0d890" transform="rotate(17 97.4 107.4)"/><ellipse cx="80.0" cy="108.2" rx="2.6" ry="1.2" fill="#fbefc8" transform="rotate(113 80.0 108.2)"/><ellipse cx="123.6" cy="110.8" rx="2.6" ry="1.2" fill="#e8c878" transform="rotate(91 123.6 110.8)"/><ellipse cx="85.4" cy="86.9" rx="2.6" ry="1.2" fill="#f0d890" transform="rotate(154 85.4 86.9)"/><ellipse cx="120.3" cy="84.7" rx="2.6" ry="1.2" fill="#e8c878" transform="rotate(156 120.3 84.7)"/><ellipse cx="122.5" cy="101.4" rx="2.6" ry="1.2" fill="#fbefc8" transform="rotate(38 122.5 101.4)"/><ellipse cx="119.2" cy="84.1" rx="2.6" ry="1.2" fill="#fbefc8" transform="rotate(141 119.2 84.1)"/><ellipse cx="148.0" cy="89.2" rx="2.6" ry="1.2" fill="#e8c878" transform="rotate(80 148.0 89.2)"/><ellipse cx="133.3" cy="103.1" rx="2.6" ry="1.2" fill="#f0d890" transform="rotate(133 133.3 103.1)"/><ellipse cx="133.0" cy="101.4" rx="2.6" ry="1.2" fill="#fbefc8" transform="rotate(173 133.0 101.4)"/><ellipse cx="65.7" cy="95.8" rx="2.6" ry="1.2" fill="#f6e6b0" transform="rotate(44 65.7 95.8)"/><ellipse cx="99.6" cy="97.8" rx="2.6" ry="1.2" fill="#fbefc8" transform="rotate(114 99.6 97.8)"/><ellipse cx="140.7" cy="107.8" rx="2.6" ry="1.2" fill="#f0d890" transform="rotate(175 140.7 107.8)"/><ellipse cx="96.8" cy="93.5" rx="2.6" ry="1.2" fill="#f0d890" transform="rotate(60 96.8 93.5)"/><ellipse cx="79.8" cy="82.6" rx="2.6" ry="1.2" fill="#f6e6b0" transform="rotate(157 79.8 82.6)"/><ellipse cx="89.6" cy="91.9" rx="2.6" ry="1.2" fill="#f0d890" transform="rotate(19 89.6 91.9)"/><ellipse cx="56.2" cy="102.5" rx="2.6" ry="1.2" fill="#e8c878" transform="rotate(104 56.2 102.5)"/><ellipse cx="82.8" cy="94.0" rx="2.6" ry="1.2" fill="#e8c878" transform="rotate(151 82.8 94.0)"/><ellipse cx="117.6" cy="112.2" rx="2.6" ry="1.2" fill="#f6e6b0" transform="rotate(14 117.6 112.2)"/><ellipse cx="54.4" cy="92.5" rx="2.6" ry="1.2" fill="#fbefc8" transform="rotate(32 54.4 92.5)"/><ellipse cx="106.7" cy="88.7" rx="2.6" ry="1.2" fill="#f6e6b0" transform="rotate(76 106.7 88.7)"/><ellipse cx="116.4" cy="107.1" rx="2.6" ry="1.2" fill="#e8c878" transform="rotate(17 116.4 107.1)"/><ellipse cx="93.5" cy="89.5" rx="2.6" ry="1.2" fill="#e8c878" transform="rotate(107 93.5 89.5)"/><ellipse cx="83.1" cy="110.8" rx="2.6" ry="1.2" fill="#e8c878" transform="rotate(56 83.1 110.8)"/><ellipse cx="122.1" cy="97.2" rx="2.6" ry="1.2" fill="#e8c878" transform="rotate(163 122.1 97.2)"/><ellipse cx="78.9" cy="83.5" rx="2.6" ry="1.2" fill="#fbefc8" transform="rotate(165 78.9 83.5)"/><ellipse cx="91.1" cy="85.8" rx="2.6" ry="1.2" fill="#e8c878" transform="rotate(161 91.1 85.8)"/><ellipse cx="81.7" cy="97.0" rx="2.6" ry="1.2" fill="#f6e6b0" transform="rotate(79 81.7 97.0)"/><ellipse cx="104.8" cy="106.6" rx="2.6" ry="1.2" fill="#e8c878" transform="rotate(24 104.8 106.6)"/><ellipse cx="122.8" cy="89.8" rx="2.6" ry="1.2" fill="#f0d890" transform="rotate(86 122.8 89.8)"/><ellipse cx="61.4" cy="94.4" rx="2.6" ry="1.2" fill="#f0d890" transform="rotate(79 61.4 94.4)"/><ellipse cx="76.2" cy="107.3" rx="2.6" ry="1.2" fill="#f6e6b0" transform="rotate(36 76.2 107.3)"/><ellipse cx="83.6" cy="104.1" rx="2.6" ry="1.2" fill="#f0d890" transform="rotate(33 83.6 104.1)"/><ellipse cx="52.1" cy="101.5" rx="2.6" ry="1.2" fill="#e8c878" transform="rotate(130 52.1 101.5)"/><ellipse cx="130.3" cy="105.7" rx="2.6" ry="1.2" fill="#f0d890" transform="rotate(36 130.3 105.7)"/><ellipse cx="153.9" cy="101.4" rx="2.6" ry="1.2" fill="#f6e6b0" transform="rotate(111 153.9 101.4)"/><ellipse cx="148.3" cy="105.3" rx="2.6" ry="1.2" fill="#fbefc8" transform="rotate(18 148.3 105.3)"/><ellipse cx="106.6" cy="106.0" rx="2.6" ry="1.2" fill="#e8c878" transform="rotate(83 106.6 106.0)"/><ellipse cx="114.1" cy="106.2" rx="2.6" ry="1.2" fill="#fbefc8" transform="rotate(46 114.1 106.2)"/><ellipse cx="50.2" cy="103.9" rx="2.6" ry="1.2" fill="#e8c878" transform="rotate(155 50.2 103.9)"/><ellipse cx="56.8" cy="105.0" rx="2.6" ry="1.2" fill="#fbefc8" transform="rotate(140 56.8 105.0)"/><ellipse cx="95.5" cy="108.5" rx="2.6" ry="1.2" fill="#e8c878" transform="rotate(138 95.5 108.5)"/><ellipse cx="77.2" cy="100.6" rx="2.6" ry="1.2" fill="#f0d890" transform="rotate(22 77.2 100.6)"/><ellipse cx="139.6" cy="94.8" rx="2.6" ry="1.2" fill="#fbefc8" transform="rotate(116 139.6 94.8)"/><ellipse cx="133.1" cy="107.0" rx="2.6" ry="1.2" fill="#fbefc8" transform="rotate(158 133.1 107.0)"/><ellipse cx="120.5" cy="103.2" rx="2.6" ry="1.2" fill="#f6e6b0" transform="rotate(16 120.5 103.2)"/><ellipse cx="105.7" cy="111.5" rx="2.6" ry="1.2" fill="#fbefc8" transform="rotate(10 105.7 111.5)"/><ellipse cx="145.6" cy="90.1" rx="2.6" ry="1.2" fill="#fbefc8" transform="rotate(135 145.6 90.1)"/><ellipse cx="55.9" cy="97.1" rx="2.6" ry="1.2" fill="#f6e6b0" transform="rotate(55 55.9 97.1)"/><ellipse cx="81.2" cy="113.8" rx="2.6" ry="1.2" fill="#e8c878" transform="rotate(0 81.2 113.8)"/><ellipse cx="69.8" cy="108.5" rx="2.6" ry="1.2" fill="#e8c878" transform="rotate(33 69.8 108.5)"/><ellipse cx="43.0" cy="104.6" rx="2.6" ry="1.2" fill="#f0d890" transform="rotate(131 43.0 104.6)"/><ellipse cx="58.0" cy="96.4" rx="2.6" ry="1.2" fill="#f0d890" transform="rotate(113 58.0 96.4)"/><ellipse cx="110.0" cy="89.5" rx="2.6" ry="1.2" fill="#f0d890" transform="rotate(63 110.0 89.5)"/><ellipse cx="138.9" cy="110.8" rx="2.6" ry="1.2" fill="#fbefc8" transform="rotate(47 138.9 110.8)"/><ellipse cx="47.2" cy="91.8" rx="2.6" ry="1.2" fill="#e8c878" transform="rotate(7 47.2 91.8)"/><ellipse cx="100.1" cy="92.1" rx="2.6" ry="1.2" fill="#f0d890" transform="rotate(105 100.1 92.1)"/><ellipse cx="83.8" cy="95.9" rx="2.6" ry="1.2" fill="#f6e6b0" transform="rotate(91 83.8 95.9)"/><ellipse cx="121.8" cy="107.8" rx="2.6" ry="1.2" fill="#e8c878" transform="rotate(45 121.8 107.8)"/><ellipse cx="109.0" cy="100.3" rx="2.6" ry="1.2" fill="#f6e6b0" transform="rotate(98 109.0 100.3)"/><ellipse cx="69.6" cy="88.9" rx="2.6" ry="1.2" fill="#f0d890" transform="rotate(2 69.6 88.9)"/><ellipse cx="66.7" cy="83.8" rx="2.6" ry="1.2" fill="#fbefc8" transform="rotate(179 66.7 83.8)"/><ellipse cx="95.6" cy="107.7" rx="2.6" ry="1.2" fill="#f0d890" transform="rotate(179 95.6 107.7)"/><ellipse cx="101.8" cy="114.1" rx="2.6" ry="1.2" fill="#fbefc8" transform="rotate(81 101.8 114.1)"/><ellipse cx="73.8" cy="85.5" rx="2.6" ry="1.2" fill="#f6e6b0" transform="rotate(95 73.8 85.5)"/><ellipse cx="153.2" cy="100.5" rx="2.6" ry="1.2" fill="#e8c878" transform="rotate(119 153.2 100.5)"/><ellipse cx="66.8" cy="107.5" rx="2.6" ry="1.2" fill="#fbefc8" transform="rotate(28 66.8 107.5)"/><ellipse cx="134.9" cy="96.6" rx="2.6" ry="1.2" fill="#e8c878" transform="rotate(119 134.9 96.6)"/><ellipse cx="88.9" cy="87.7" rx="2.6" ry="1.2" fill="#f6e6b0" transform="rotate(16 88.9 87.7)"/><ellipse cx="100.5" cy="99.7" rx="2.6" ry="1.2" fill="#f6e6b0" transform="rotate(8 100.5 99.7)"/><rect x="107" y="98" width="9" height="7" rx="2.5" fill="#e8c9a0" stroke="#b88a5a" stroke-width=".7"/><rect x="49" y="109" width="9" height="7" rx="2.5" fill="#e8c9a0" stroke="#b88a5a" stroke-width=".7"/><rect x="60" y="101" width="9" height="7" rx="2.5" fill="#e8c9a0" stroke="#b88a5a" stroke-width=".7"/><rect x="104" y="107" width="9" height="7" rx="2.5" fill="#e8c9a0" stroke="#b88a5a" stroke-width=".7"/><rect x="78" y="95" width="9" height="7" rx="2.5" fill="#e8c9a0" stroke="#b88a5a" stroke-width=".7"/><rect x="102" y="99" width="9" height="7" rx="2.5" fill="#e8c9a0" stroke="#b88a5a" stroke-width=".7"/><rect x="54" y="100" width="9" height="7" rx="2.5" fill="#e8c9a0" stroke="#b88a5a" stroke-width=".7"/><rect x="88" y="109" width="9" height="7" rx="2.5" fill="#e8c9a0" stroke="#b88a5a" stroke-width=".7"/><path d="M98 104 q4 -4 9 -1 q2 4 -3 6 q-6 1 -6 -5z" fill="#ffe14a" stroke="#f0c020" stroke-width=".6"/><path d="M117 111 q4 -4 9 -1 q2 4 -3 6 q-6 1 -6 -5z" fill="#ffe14a" stroke="#f0c020" stroke-width=".6"/><path d="M147 95 q4 -4 9 -1 q2 4 -3 6 q-6 1 -6 -5z" fill="#ffe14a" stroke="#f0c020" stroke-width=".6"/><path d="M91 107 q4 -4 9 -1 q2 4 -3 6 q-6 1 -6 -5z" fill="#ffe14a" stroke="#f0c020" stroke-width=".6"/><path d="M119 107 q4 -4 9 -1 q2 4 -3 6 q-6 1 -6 -5z" fill="#ffe14a" stroke="#f0c020" stroke-width=".6"/><path d="M61 111 q4 -4 9 -1 q2 4 -3 6 q-6 1 -6 -5z" fill="#ffe14a" stroke="#f0c020" stroke-width=".6"/><path d="M56 90 q4 -4 9 -1 q2 4 -3 6 q-6 1 -6 -5z" fill="#ffe14a" stroke="#f0c020" stroke-width=".6"/><path d="M149 108 q4 -4 9 -1 q2 4 -3 6 q-6 1 -6 -5z" fill="#ffe14a" stroke="#f0c020" stroke-width=".6"/><path d="M113 98 q4 -4 9 -1 q2 4 -3 6 q-6 1 -6 -5z" fill="#ffe14a" stroke="#f0c020" stroke-width=".6"/><rect x="126" y="108" width="4.5" height="4.5" rx="1" fill="#f28c28"/><rect x="78" y="105" width="4.5" height="4.5" rx="1" fill="#f28c28"/><rect x="97" y="91" width="4.5" height="4.5" rx="1" fill="#f28c28"/><rect x="52" y="100" width="4.5" height="4.5" rx="1" fill="#f28c28"/><rect x="93" y="98" width="4.5" height="4.5" rx="1" fill="#f28c28"/><rect x="123" y="97" width="4.5" height="4.5" rx="1" fill="#f28c28"/><rect x="107" y="103" width="4.5" height="4.5" rx="1" fill="#f28c28"/><rect x="117" y="101" width="4.5" height="4.5" rx="1" fill="#f28c28"/><rect x="108" y="94" width="4.5" height="4.5" rx="1" fill="#f28c28"/><rect x="134" y="107" width="4.5" height="4.5" rx="1" fill="#f28c28"/><rect x="137" y="92" width="4.5" height="4.5" rx="1" fill="#f28c28"/><rect x="97" y="102" width="4.5" height="4.5" rx="1" fill="#f28c28"/><circle cx="71" cy="104" r="2.8" fill="#5cb030" stroke="#3f8a22" stroke-width=".6"/><circle cx="48" cy="86" r="2.8" fill="#5cb030" stroke="#3f8a22" stroke-width=".6"/><circle cx="69" cy="95" r="2.8" fill="#5cb030" stroke="#3f8a22" stroke-width=".6"/><circle cx="46" cy="108" r="2.8" fill="#5cb030" stroke="#3f8a22" stroke-width=".6"/><circle cx="80" cy="103" r="2.8" fill="#5cb030" stroke="#3f8a22" stroke-width=".6"/><circle cx="133" cy="106" r="2.8" fill="#5cb030" stroke="#3f8a22" stroke-width=".6"/><circle cx="61" cy="86" r="2.8" fill="#5cb030" stroke="#3f8a22" stroke-width=".6"/><circle cx="93" cy="112" r="2.8" fill="#5cb030" stroke="#3f8a22" stroke-width=".6"/><circle cx="45" cy="88" r="2.8" fill="#5cb030" stroke="#3f8a22" stroke-width=".6"/><circle cx="148" cy="87" r="2.8" fill="#5cb030" stroke="#3f8a22" stroke-width=".6"/><circle cx="99" cy="110" r="2.8" fill="#5cb030" stroke="#3f8a22" stroke-width=".6"/><circle cx="54" cy="101" r="2.8" fill="#5cb030" stroke="#3f8a22" stroke-width=".6"/><circle cx="49" cy="97" r="2.8" fill="#5cb030" stroke="#3f8a22" stroke-width=".6"/><circle cx="75" cy="89" r="2.8" fill="#5cb030" stroke="#3f8a22" stroke-width=".6"/><circle cx="151" cy="90" r="2.8" fill="#5cb030" stroke="#3f8a22" stroke-width=".6"/><circle cx="128" cy="110" r="2.8" fill="#5cb030" stroke="#3f8a22" stroke-width=".6"/><circle cx="115" cy="98" r="2.2" fill="none" stroke="#3f9a2a" stroke-width="1.5"/><circle cx="86" cy="107" r="2.2" fill="none" stroke="#3f9a2a" stroke-width="1.5"/><circle cx="110" cy="89" r="2.2" fill="none" stroke="#3f9a2a" stroke-width="1.5"/><circle cx="65" cy="95" r="2.2" fill="none" stroke="#3f9a2a" stroke-width="1.5"/><circle cx="127" cy="95" r="2.2" fill="none" stroke="#3f9a2a" stroke-width="1.5"/><circle cx="53" cy="102" r="2.2" fill="none" stroke="#3f9a2a" stroke-width="1.5"/><circle cx="83" cy="96" r="2.2" fill="none" stroke="#3f9a2a" stroke-width="1.5"/><circle cx="108" cy="108" r="2.2" fill="none" stroke="#3f9a2a" stroke-width="1.5"/></g>
<path d="M40 92 q30 -12 60 -10" stroke="#fff" stroke-opacity=".25" stroke-width="3" fill="none" stroke-linecap="round"/>
</svg>