<svg xmlns="http://www.w3.org/2000/svg" viewBox="0 0 200 200">
<defs><linearGradient id="l" x1="0" x2="0" y1="0" y2="1"><stop offset="0" stop-color="#c8662e"/><stop offset=".35" stop-color="#f58a60"/><stop offset="1" stop-color="#f8a67e"/></linearGradient></defs>
<ellipse cx="100" cy="154" rx="92" ry="14" fill="#000" opacity=".18"/>
<ellipse cx="100" cy="128" rx="90" ry="30" fill="#e0d6c4"/><ellipse cx="100" cy="124" rx="88" ry="28" fill="#fbf9f4"/>
<ellipse cx="100" cy="118" rx="58" ry="18" fill="#f2d68a"/>
<path d="M51 108 q-10 -6 -5 -5" stroke="#f3d27a" stroke-width="5" fill="none" stroke-linecap="round"/><path d="M121 109 q-12 -4 17 1" stroke="#f7de96" stroke-width="5" fill="none" stroke-linecap="round"/><path d="M95 114 q-13 7 15 4" stroke="#e9c35e" stroke-width="5" fill="none" stroke-linecap="round"/><path d="M84 110 q-7 4 -11 -3" stroke="#e9c35e" stroke-width="5" fill="none" stroke-linecap="round"/><path d="M108 117 q-4 -5 9 -6" stroke="#e9c35e" stroke-width="5" fill="none" stroke-linecap="round"/><path d="M53 121 q-8 5 -10 -6" stroke="#f7de96" stroke-width="5" fill="none" stroke-linecap="round"/><path d="M87 113 q-7 -3 -16 1" stroke="#f7de96" stroke-width="5" fill="none" stroke-linecap="round"/><path d="M90 119 q13 8 16 -2" stroke="#e9c35e" stroke-width="5" fill="none" stroke-linecap="round"/><path d="M140 117 q-6 -5 9 -6" stroke="#f3d27a" stroke-width="5" fill="none" stroke-linecap="round"/><path d="M142 118 q-3 7 13 4" stroke="#f7de96" stroke-width="5" fill="none" stroke-linecap="round"/><path d="M134 124 q-5 -2 3 4" stroke="#f3d27a" stroke-width="5" fill="none" stroke-linecap="round"/><path d="M106 108 q-11 -5 11 -0" stroke="#e9c35e" stroke-width="5" fill="none" stroke-linecap="round"/><path d="M66 126 q3 0 10 2" stroke="#e9c35e" stroke-width="5" fill="none" stroke-linecap="round"/><path d="M148 116 q-0 5 9 -5" stroke="#f7de96" stroke-width="5" fill="none" stroke-linecap="round"/><path d="M119 125 q7 8 -0 6" stroke="#e9c35e" stroke-width="5" fill="none" stroke-linecap="round"/><path d="M74 108 q14 -6 -14 2" stroke="#f7de96" stroke-width="5" fill="none" stroke-linecap="round"/><path d="M137 107 q-9 5 4 6" stroke="#e9c35e" stroke-width="5" fill="none" stroke-linecap="round"/><path d="M119 117 q6 0 -14 -0" stroke="#f3d27a" stroke-width="5" fill="none" stroke-linecap="round"/><path d="M102 120 q-1 -6 -3 -5" stroke="#f3d27a" stroke-width="5" fill="none" stroke-linecap="round"/><path d="M102 113 q-3 4 -3 4" stroke="#f3d27a" stroke-width="5" fill="none" stroke-linecap="round"/><path d="M135 108 q-3 -3 9 4" stroke="#e9c35e" stroke-width="5" fill="none" stroke-linecap="round"/><path d="M139 112 q-6 7 13 -3" stroke="#f3d27a" stroke-width="5" fill="none" stroke-linecap="round"/><path d="M53 118 q-8 5 -1 7" stroke="#e9c35e" stroke-width="5" fill="none" stroke-linecap="round"/><path d="M71 107 q-7 -3 -4 -5" stroke="#e9c35e" stroke-width="5" fill="none" stroke-linecap="round"/><path d="M120 113 q-7 2 15 3" stroke="#e9c35e" stroke-width="5" fill="none" stroke-linecap="round"/><path d="M139 115 q-2 -7 -8 -5" stroke="#f3d27a" stroke-width="5" fill="none" stroke-linecap="round"/><g transform="translate(60 118)"><circle r="6" fill="#d8321e"/><path d="M-3 -1 a3 3 0 0 1 6 0" fill="#f7a08a" opacity=".7"/><circle r="2" fill="#f4c040" opacity=".6"/></g><g transform="translate(142 122)"><circle r="6" fill="#d8321e"/><path d="M-3 -1 a3 3 0 0 1 6 0" fill="#f7a08a" opacity=".7"/><circle r="2" fill="#f4c040" opacity=".6"/></g><g transform="translate(76 130)"><circle r="6" fill="#d8321e"/><path d="M-3 -1 a3 3 0 0 1 6 0" fill="#f7a08a" opacity=".7"/><circle r="2" fill="#f4c040" opacity=".6"/></g><g transform="translate(126 108)"><circle r="6" fill="#d8321e"/><path d="M-3 -1 a3 3 0 0 1 6 0" fill="#f7a08a" opacity=".7"/><circle r="2" fill="#f4c040" opacity=".6"/></g>
<g transform="translate(100 98) rotate(-6)">
<path d="M-34 6 Q-36 -10 -18 -14 L26 -14 Q38 -12 36 2 L34 10 Q20 16 -30 14z" fill="#e87a52"/>
<path d="M-34 0 Q-36 -14 -18 -18 L26 -18 Q38 -16 36 -2 L34 6 Q20 12 -30 10z" fill="url(#l)" stroke="#a8481e" stroke-width="1"/>
<path d="M-24 -14 q6 10 2 22 M-10 -16 q6 11 2 24 M4 -16 q6 11 2 24 M18 -16 q6 11 2 22" stroke="#fde2d2" stroke-width="2.2" fill="none" opacity=".85"/>
<path d="M-30 -8 L32 -10" stroke="#8a3a14" stroke-width="3" opacity=".35"/>
</g>
<g transform="translate(150 96)"><path d="M0 0 a16 16 0 0 1 -14 -14 l14 0z" fill="#f5d20a"/><path d="M0 0 a13 13 0 0 1 -11 -11 l11 0z" fill="#fff6b0"/></g>
<ellipse cx="81" cy="115" rx="2.2" ry="1.3" fill="#3f8a22"/><ellipse cx="53" cy="106" rx="2.2" ry="1.3" fill="#3f8a22"/><ellipse cx="88" cy="121" rx="2.2" ry="1.3" fill="#3f8a22"/><ellipse cx="81" cy="124" rx="2.2" ry="1.3" fill="#3f8a22"/><ellipse cx="108" cy="114" rx="2.2" ry="1.3" fill="#3f8a22"/><ellipse cx="127" cy="111" rx="2.2" ry="1.3" fill="#3f8a22"/><ellipse cx="110" cy="123" rx="2.2" ry="1.3" fill="#3f8a22"/><ellipse cx="104" cy="112" rx="2.2" ry="1.3" fill="#3f8a22"/><ellipse cx="61" cy="117" rx="2.2" ry="1.3" fill="#3f8a22"/><ellipse cx="70" cy="113" rx="2.2" ry="1.3" fill="#3f8a22"/><ellipse cx="104" cy="125" rx="2.2" ry="1.3" fill="#3f8a22"/><ellipse cx="117" cy="116" rx="2.2" ry="1.3" fill="#3f8a22"/><ellipse cx="134" cy="112" rx="2.2" ry="1.3" fill="#3f8a22"/><ellipse cx="89" cy="120" rx="2.2" ry="1.3" fill="#3f8a22"/><ellipse cx="105" cy="110" rx="2.2" ry="1.3" fill="#3f8a22"/><ellipse cx="91" cy="122" rx="2.2" ry="1.3" fill="#3f8a22"/><ellipse cx="75" cy="120" rx="2.2" ry="1.3" fill="#3f8a22"/><ellipse cx="57" cy="125" rx="2.2" ry="1.3" fill="#3f8a22"/><ellipse cx="118" cy="112" rx="2.2" ry="1.3" fill="#3f8a22"/><ellipse cx="146" cy="122" rx="2.2" ry="1.3" fill="#3f8a22"/><ellipse cx="58" cy="111" rx="2.2" ry="1.3" fill="#3f8a22"/><ellipse cx="99" cy="126" rx="2.2" ry="1.3" fill="#3f8a22"/>
</svg>