<svg xmlns="http://www.w3.org/2000/svg" viewBox="0 0 200 200">
<defs><radialGradient id="g" cx=".45" cy=".35" r=".8"><stop offset="0" stop-color="#f6c870"/><stop offset=".6" stop-color="#d88a32"/><stop offset="1" stop-color="#a85c1a"/></radialGradient>
<clipPath id="c"><ellipse cx="100" cy="100" rx="66" ry="22"/></clipPath></defs>
<ellipse cx="100" cy="146" rx="90" ry="12" fill="#000" opacity=".2"/>
<ellipse cx="100" cy="118" rx="84" ry="30" fill="#8a4a14"/>
<ellipse cx="100" cy="110" rx="84" ry="30" fill="#c87a2a"/>
<ellipse cx="100" cy="104" rx="80" ry="28" fill="url(#g)"/>
<ellipse cx="100" cy="100" rx="66" ry="22" fill="#e8a64a"/>
<g clip-path="url(#c)"><path d="M6 80 L66 122" stroke="#9a5a16" stroke-width="2" opacity=".55"/><path d="M66 80 L6 122" stroke="#9a5a16" stroke-width="2" opacity=".55"/><path d="M22 80 L82 122" stroke="#9a5a16" stroke-width="2" opacity=".55"/><path d="M82 80 L22 122" stroke="#9a5a16" stroke-width="2" opacity=".55"/><path d="M38 80 L98 122" stroke="#9a5a16" stroke-width="2" opacity=".55"/><path d="M98 80 L38 122" stroke="#9a5a16" stroke-width="2" opacity=".55"/><path d="M54 80 L114 122" stroke="#9a5a16" stroke-width="2" opacity=".55"/><path d="M114 80 L54 122" stroke="#9a5a16" stroke-width="2" opacity=".55"/><path d="M70 80 L130 122" stroke="#9a5a16" stroke-width="2" opacity=".55"/><path d="M130 80 L70 122" stroke="#9a5a16" stroke-width="2" opacity=".55"/><path d="M86 80 L146 122" stroke="#9a5a16" stroke-width="2" opacity=".55"/><path d="M146 80 L86 122" stroke="#9a5a16" stroke-width="2" opacity=".55"/><path d="M102 80 L162 122" stroke="#9a5a16" stroke-width="2" opacity=".55"/><path d="M162 80 L102 122" stroke="#9a5a16" stroke-width="2" opacity=".55"/><path d="M118 80 L178 122" stroke="#9a5a16" stroke-width="2" opacity=".55"/><path d="M178 80 L118 122" stroke="#9a5a16" stroke-width="2" opacity=".55"/><path d="M134 80 L194 122" stroke="#9a5a16" stroke-width="2" opacity=".55"/><path d="M194 80 L134 122" stroke="#9a5a16" stroke-width="2" opacity=".55"/><ellipse cx="69" cy="103" rx="1.5" ry=".8" fill="#fff2cc" transform="rotate(109 69 103)"/><ellipse cx="150" cy="100" rx="1.5" ry=".8" fill="#fff2cc" transform="rotate(31 150 100)"/><ellipse cx="71" cy="92" rx="1.5" ry=".8" fill="#fff2cc" transform="rotate(32 71 92)"/><ellipse cx="105" cy="103" rx="1.5" ry=".8" fill="#fff2cc" transform="rotate(142 105 103)"/><ellipse cx="117" cy="89" rx="1.5" ry=".8" fill="#1a1a1a" transform="rotate(0 117 89)"/><ellipse cx="144" cy="102" rx="1.5" ry=".8" fill="#1a1a1a" transform="rotate(97 144 102)"/><ellipse cx="121" cy="86" rx="1.5" ry=".8" fill="#fff2cc" transform="rotate(20 121 86)"/><ellipse cx="97" cy="108" rx="1.5" ry=".8" fill="#fff2cc" transform="rotate(145 97 108)"/><ellipse cx="126" cy="115" rx="1.5" ry=".8" fill="#fff2cc" transform="rotate(45 126 115)"/><ellipse cx="127" cy="104" rx="1.5" ry=".8" fill="#1a1a1a" transform="rotate(10 127 104)"/><ellipse cx="145" cy="87" rx="1.5" ry=".8" fill="#1a1a1a" transform="rotate(95 145 87)"/><ellipse cx="99" cy="93" rx="1.5" ry=".8" fill="#fff2cc" transform="rotate(117 99 93)"/><ellipse cx="133" cy="113" rx="1.5" ry=".8" fill="#fff2cc" transform="rotate(154 133 113)"/><ellipse cx="101" cy="97" rx="1.5" ry=".8" fill="#fff2cc" transform="rotate(166 101 97)"/><ellipse cx="104" cy="98" rx="1.5" ry=".8" fill="#1a1a1a" transform="rotate(138 104 98)"/><ellipse cx="149" cy="107" rx="1.5" ry=".8" fill="#1a1a1a" transform="rotate(97 149 107)"/><ellipse cx="124" cy="95" rx="1.5" ry=".8" fill="#fff2cc" transform="rotate(162 124 95)"/><ellipse cx="149" cy="103" rx="1.5" ry=".8" fill="#1a1a1a" transform="rotate(11 149 103)"/><ellipse cx="116" cy="118" rx="1.5" ry=".8" fill="#fff2cc" transform="rotate(159 116 118)"/><ellipse cx="74" cy="86" rx="1.5" ry=".8" fill="#fff2cc" transform="rotate(110 74 86)"/><ellipse cx="51" cy="111" rx="1.5" ry=".8" fill="#fff2cc" transform="rotate(13 51 111)"/><ellipse cx="132" cy="114" rx="1.5" ry=".8" fill="#1a1a1a" transform="rotate(95 132 114)"/><ellipse cx="113" cy="110" rx="1.5" ry=".8" fill="#fff2cc" transform="rotate(160 113 110)"/><ellipse cx="126" cy="95" rx="1.5" ry=".8" fill="#fff2cc" transform="rotate(127 126 95)"/><ellipse cx="101" cy="118" rx="1.5" ry=".8" fill="#fff2cc" transform="rotate(179 101 118)"/><ellipse cx="75" cy="93" rx="1.5" ry=".8" fill="#1a1a1a" transform="rotate(80 75 93)"/><ellipse cx="158" cy="96" rx="1.5" ry=".8" fill="#fff2cc" transform="rotate(107 158 96)"/><ellipse cx="85" cy="114" rx="1.5" ry=".8" fill="#fff2cc" transform="rotate(177 85 114)"/><ellipse cx="117" cy="104" rx="1.5" ry=".8" fill="#fff2cc" transform="rotate(107 117 104)"/><ellipse cx="73" cy="106" rx="1.5" ry=".8" fill="#1a1a1a" transform="rotate(117 73 106)"/><ellipse cx="152" cy="99" rx="1.5" ry=".8" fill="#fff2cc" transform="rotate(4 152 99)"/><ellipse cx="103" cy="103" rx="1.5" ry=".8" fill="#1a1a1a" transform="rotate(62 103 103)"/><ellipse cx="42" cy="105" rx="1.5" ry=".8" fill="#1a1a1a" transform="rotate(55 42 105)"/><ellipse cx="47" cy="105" rx="1.5" ry=".8" fill="#fff2cc" transform="rotate(137 47 105)"/><ellipse cx="82" cy="115" rx="1.5" ry=".8" fill="#fff2cc" transform="rotate(69 82 115)"/><ellipse cx="125" cy="109" rx="1.5" ry=".8" fill="#1a1a1a" transform="rotate(177 125 109)"/><ellipse cx="111" cy="116" rx="1.5" ry=".8" fill="#1a1a1a" transform="rotate(151 111 116)"/><ellipse cx="156" cy="93" rx="1.5" ry=".8" fill="#fff2cc" transform="rotate(18 156 93)"/><ellipse cx="76" cy="104" rx="1.5" ry=".8" fill="#1a1a1a" transform="rotate(108 76 104)"/><ellipse cx="84" cy="95" rx="1.5" ry=".8" fill="#fff2cc" transform="rotate(57 84 95)"/><ellipse cx="141" cy="93" rx="1.5" ry=".8" fill="#fff2cc" transform="rotate(109 141 93)"/><ellipse cx="53" cy="112" rx="1.5" ry=".8" fill="#fff2cc" transform="rotate(33 53 112)"/><ellipse cx="122" cy="88" rx="1.5" ry=".8" fill="#fff2cc" transform="rotate(7 122 88)"/><ellipse cx="67" cy="111" rx="1.5" ry=".8" fill="#1a1a1a" transform="rotate(83 67 111)"/><ellipse cx="79" cy="107" rx="1.5" ry=".8" fill="#1a1a1a" transform="rotate(95 79 107)"/><ellipse cx="52" cy="95" rx="1.5" ry=".8" fill="#fff2cc" transform="rotate(143 52 95)"/><ellipse cx="121" cy="92" rx="1.5" ry=".8" fill="#1a1a1a" transform="rotate(67 121 92)"/><ellipse cx="50" cy="109" rx="1.5" ry=".8" fill="#1a1a1a" transform="rotate(31 50 109)"/><ellipse cx="146" cy="99" rx="1.5" ry=".8" fill="#1a1a1a" transform="rotate(118 146 99)"/><ellipse cx="134" cy="85" rx="1.5" ry=".8" fill="#1a1a1a" transform="rotate(176 134 85)"/><ellipse cx="78" cy="112" rx="1.5" ry=".8" fill="#fff2cc" transform="rotate(31 78 112)"/><ellipse cx="62" cy="93" rx="1.5" ry=".8" fill="#1a1a1a" transform="rotate(169 62 93)"/><ellipse cx="137" cy="96" rx="1.5" ry=".8" fill="#1a1a1a" transform="rotate(135 137 96)"/><ellipse cx="91" cy="102" rx="1.5" ry=".8" fill="#fff2cc" transform="rotate(96 91 102)"/><ellipse cx="96" cy="106" rx="1.5" ry=".8" fill="#fff2cc" transform="rotate(170 96 106)"/><ellipse cx="90" cy="98" rx="1.5" ry=".8" fill="#fff2cc" transform="rotate(27 90 98)"/><ellipse cx="158" cy="99" rx="1.5" ry=".8" fill="#1a1a1a" transform="rotate(81 158 99)"/><ellipse cx="44" cy="100" rx="1.5" ry=".8" fill="#fff2cc" transform="rotate(144 44 100)"/><ellipse cx="156" cy="102" rx="1.5" ry=".8" fill="#1a1a1a" transform="rotate(136 156 102)"/><ellipse cx="143" cy="113" rx="1.5" ry=".8" fill="#fff2cc" transform="rotate(26 143 113)"/><ellipse cx="54" cy="92" rx="1.5" ry=".8" fill="#1a1a1a" transform="rotate(150 54 92)"/><ellipse cx="148" cy="108" rx="1.5" ry=".8" fill="#1a1a1a" transform="rotate(1 148 108)"/><ellipse cx="46" cy="100" rx="1.5" ry=".8" fill="#1a1a1a" transform="rotate(121 46 100)"/><ellipse cx="61" cy="94" rx="1.5" ry=".8" fill="#1a1a1a" transform="rotate(36 61 94)"/><ellipse cx="103" cy="98" rx="1.5" ry=".8" fill="#fff2cc" transform="rotate(60 103 98)"/><ellipse cx="54" cy="88" rx="1.5" ry=".8" fill="#fff2cc" transform="rotate(99 54 88)"/><ellipse cx="97" cy="111" rx="1.5" ry=".8" fill="#fff2cc" transform="rotate(11 97 111)"/><ellipse cx="66" cy="88" rx="1.5" ry=".8" fill="#1a1a1a" transform="rotate(134 66 88)"/><ellipse cx="61" cy="111" rx="1.5" ry=".8" fill="#1a1a1a" transform="rotate(23 61 111)"/><ellipse cx="70" cy="105" rx="1.5" ry=".8" fill="#fff2cc" transform="rotate(144 70 105)"/><ellipse cx="91" cy="100" rx="1.5" ry=".8" fill="#1a1a1a" transform="rotate(25 91 100)"/><ellipse cx="143" cy="110" rx="1.5" ry=".8" fill="#1a1a1a" transform="rotate(168 143 110)"/><ellipse cx="55" cy="86" rx="1.5" ry=".8" fill="#1a1a1a" transform="rotate(96 55 86)"/><ellipse cx="143" cy="87" rx="1.5" ry=".8" fill="#fff2cc" transform="rotate(45 143 87)"/><ellipse cx="99" cy="89" rx="1.5" ry=".8" fill="#1a1a1a" transform="rotate(6 99 89)"/><ellipse cx="82" cy="106" rx="1.5" ry=".8" fill="#fff2cc" transform="rotate(87 82 106)"/><ellipse cx="76" cy="93" rx="1.5" ry=".8" fill="#fff2cc" transform="rotate(31 76 93)"/></g>
<path d="M36 96 q60 -26 128 0" stroke="#fff" stroke-opacity=".3" stroke-width="3" fill="none" stroke-linecap="round"/>
</svg>