<svg xmlns="http://www.w3.org/2000/svg" viewBox="0 0 200 200">
<defs><radialGradient id="c" cx=".45" cy=".4" r=".7"><stop offset="0" stop-color="#fff6d8"/><stop offset=".6" stop-color="#f2c870"/><stop offset="1" stop-color="#c8862e"/></radialGradient></defs>
<ellipse cx="100" cy="152" rx="90" ry="14" fill="#000" opacity=".18"/>
<ellipse cx="100" cy="126" rx="88" ry="28" fill="#e9e4da"/><ellipse cx="100" cy="122" rx="86" ry="26" fill="#fbf9f4"/>
<ellipse cx="108.6" cy="128.5" rx="8.0" ry="3.1" fill="#5aa832" transform="rotate(35 108.6 128.5)"/><ellipse cx="101.0" cy="129.0" rx="9.0" ry="3.1" fill="#5aa832" transform="rotate(124 101.0 129.0)"/><ellipse cx="59.6" cy="115.5" rx="11.5" ry="3.8" fill="#5aa832" transform="rotate(124 59.6 115.5)"/><ellipse cx="100.8" cy="114.4" rx="9.6" ry="3.9" fill="#2f6a1a" transform="rotate(97 100.8 114.4)"/><ellipse cx="92.7" cy="98.3" rx="12.0" ry="3.1" fill="#3f8a22" transform="rotate(158 92.7 98.3)"/><ellipse cx="109.4" cy="107.1" rx="8.7" ry="4.4" fill="#3f8a22" transform="rotate(127 109.4 107.1)"/><ellipse cx="135.4" cy="105.0" rx="9.9" ry="3.3" fill="#5aa832" transform="rotate(16 135.4 105.0)"/><ellipse cx="88.7" cy="111.2" rx="7.7" ry="4.7" fill="#5aa832" transform="rotate(116 88.7 111.2)"/><ellipse cx="92.6" cy="96.2" rx="9.8" ry="4.7" fill="#2f6a1a" transform="rotate(109 92.6 96.2)"/><ellipse cx="134.7" cy="123.1" rx="9.7" ry="3.6" fill="#3f8a22" transform="rotate(91 134.7 123.1)"/><ellipse cx="152.4" cy="107.2" rx="10.1" ry="3.6" fill="#6a2a4a" transform="rotate(91 152.4 107.2)"/><ellipse cx="57.9" cy="109.8" rx="11.0" ry="4.7" fill="#3f8a22" transform="rotate(179 57.9 109.8)"/><ellipse cx="66.2" cy="109.2" rx="8.5" ry="3.4" fill="#3f8a22" transform="rotate(8 66.2 109.2)"/><ellipse cx="67.3" cy="116.8" rx="7.9" ry="3.8" fill="#78b848" transform="rotate(42 67.3 116.8)"/><ellipse cx="150.5" cy="105.5" rx="8.0" ry="4.5" fill="#3f8a22" transform="rotate(76 150.5 105.5)"/><ellipse cx="139.8" cy="122.1" rx="8.7" ry="3.3" fill="#78b848" transform="rotate(111 139.8 122.1)"/><ellipse cx="118.5" cy="108.4" rx="9.2" ry="3.8" fill="#6a2a4a" transform="rotate(150 118.5 108.4)"/><ellipse cx="146.0" cy="118.1" rx="7.4" ry="3.2" fill="#3f8a22" transform="rotate(133 146.0 118.1)"/><ellipse cx="76.8" cy="110.9" rx="9.4" ry="3.3" fill="#6a2a4a" transform="rotate(154 76.8 110.9)"/><ellipse cx="107.2" cy="112.9" rx="8.7" ry="4.3" fill="#5aa832" transform="rotate(30 107.2 112.9)"/><ellipse cx="98.6" cy="101.9" rx="7.0" ry="4.7" fill="#2f6a1a" transform="rotate(53 98.6 101.9)"/><ellipse cx="143.8" cy="117.0" rx="7.9" ry="3.7" fill="#6a2a4a" transform="rotate(110 143.8 117.0)"/><ellipse cx="83.8" cy="113.8" rx="8.1" ry="4.6" fill="#6a2a4a" transform="rotate(39 83.8 113.8)"/><ellipse cx="85.5" cy="115.8" rx="10.2" ry="4.4" fill="#78b848" transform="rotate(131 85.5 115.8)"/><ellipse cx="92.2" cy="97.8" rx="9.8" ry="4.6" fill="#78b848" transform="rotate(116 92.2 97.8)"/><ellipse cx="104.1" cy="119.5" rx="7.6" ry="3.4" fill="#78b848" transform="rotate(1 104.1 119.5)"/><ellipse cx="87.8" cy="99.2" rx="10.3" ry="4.7" fill="#3f8a22" transform="rotate(135 87.8 99.2)"/><ellipse cx="149.2" cy="121.3" rx="9.5" ry="4.4" fill="#6a2a4a" transform="rotate(51 149.2 121.3)"/><ellipse cx="65.8" cy="111.9" rx="10.7" ry="4.3" fill="#78b848" transform="rotate(1 65.8 111.9)"/><ellipse cx="92.0" cy="121.0" rx="10.7" ry="4.9" fill="#3f8a22" transform="rotate(103 92.0 121.0)"/><ellipse cx="105.4" cy="121.1" rx="9.1" ry="4.5" fill="#6a2a4a" transform="rotate(82 105.4 121.1)"/><ellipse cx="52.8" cy="110.6" rx="10.9" ry="3.6" fill="#2f6a1a" transform="rotate(27 52.8 110.6)"/><ellipse cx="112.2" cy="121.7" rx="11.2" ry="3.6" fill="#6a2a4a" transform="rotate(74 112.2 121.7)"/><ellipse cx="70.4" cy="118.3" rx="11.7" ry="4.5" fill="#6a2a4a" transform="rotate(173 70.4 118.3)"/><path d="M56 118 q8 -6 16 0 q-8 5 -16 0z" fill="#f2e8b0" stroke="#c9b460" stroke-width=".8"/><path d="M128 122 q8 -6 16 0 q-8 5 -16 0z" fill="#f2e8b0" stroke="#c9b460" stroke-width=".8"/><path d="M70 104 q8 -6 16 0 q-8 5 -16 0z" fill="#f2e8b0" stroke="#c9b460" stroke-width=".8"/><g transform="translate(84 124)"><ellipse rx="5" ry="3.6" fill="#a8743a" stroke="#6e4a20" stroke-width=".8"/><path d="M-3 0 q3 -2 6 0 M-3 1.5 q3 2 6 0" stroke="#6e4a20" stroke-width=".7" fill="none"/></g><g transform="translate(140 110)"><ellipse rx="5" ry="3.6" fill="#a8743a" stroke="#6e4a20" stroke-width=".8"/><path d="M-3 0 q3 -2 6 0 M-3 1.5 q3 2 6 0" stroke="#6e4a20" stroke-width=".7" fill="none"/></g><g transform="translate(62 112)"><ellipse rx="5" ry="3.6" fill="#a8743a" stroke="#6e4a20" stroke-width=".8"/><path d="M-3 0 q3 -2 6 0 M-3 1.5 q3 2 6 0" stroke="#6e4a20" stroke-width=".7" fill="none"/></g><g transform="translate(118 128)"><ellipse rx="5" ry="3.6" fill="#a8743a" stroke="#6e4a20" stroke-width=".8"/><path d="M-3 0 q3 -2 6 0 M-3 1.5 q3 2 6 0" stroke="#6e4a20" stroke-width=".7" fill="none"/></g><g transform="translate(150 120)"><ellipse rx="5" ry="3.6" fill="#a8743a" stroke="#6e4a20" stroke-width=".8"/><path d="M-3 0 q3 -2 6 0 M-3 1.5 q3 2 6 0" stroke="#6e4a20" stroke-width=".7" fill="none"/></g>
<g transform="translate(86 106)"><ellipse cx="0" cy="6" rx="20" ry="7" fill="#c89a5a"/><rect x="-20" y="-4" width="40" height="10" fill="#c89a5a"/>
<ellipse cx="0" cy="-4" rx="20" ry="7" fill="#fbf6e6"/><rect x="-17" y="-12" width="34" height="8" fill="#f6efd8"/><ellipse cx="0" cy="-12" rx="17" ry="6" fill="url(#c)"/>
<path d="M-10 -13 q6 4 12 -1 q4 -3 8 1" stroke="#e8a820" stroke-width="2" fill="none" stroke-linecap="round" opacity=".9"/>
<g stroke="#4a7a2a" stroke-width="1" stroke-linecap="round"><path d="M-4 -14 l3 -2"/><path d="M5 -11 l2 -3"/></g></g><g transform="translate(122 102)"><ellipse cx="0" cy="6" rx="20" ry="7" fill="#c89a5a"/><rect x="-20" y="-4" width="40" height="10" fill="#c89a5a"/>
<ellipse cx="0" cy="-4" rx="20" ry="7" fill="#fbf6e6"/><rect x="-17" y="-12" width="34" height="8" fill="#f6efd8"/><ellipse cx="0" cy="-12" rx="17" ry="6" fill="url(#c)"/>
<path d="M-10 -13 q6 4 12 -1 q4 -3 8 1" stroke="#e8a820" stroke-width="2" fill="none" stroke-linecap="round" opacity=".9"/>
<g stroke="#4a7a2a" stroke-width="1" stroke-linecap="round"><path d="M-4 -14 l3 -2"/><path d="M5 -11 l2 -3"/></g></g>
<g fill="#7a1a3a" opacity=".8"><circle cx="66" cy="124" r="1.5"/><circle cx="142" cy="126" r="1.5"/><circle cx="104" cy="130" r="1.3"/></g>
</svg>